<?xml version="1.0" standalone="no"?>
<!DOCTYPE svg PUBLIC "-//W3C//DTD SVG 1.1//EN" "http://www.w3.org/Graphics/SVG/1.1/DTD/svg11.dtd" >
<svg xmlns="http://www.w3.org/2000/svg">
<metadata>Generated by IcoMoon</metadata>
<defs>
<font id="icomoon" horiz-adv-x="1024">
<font-face units-per-em="1024" ascent="960" descent="-64" />
<missing-glyph horiz-adv-x="1024" />
<glyph unicode="&#x20;" horiz-adv-x="512" d="" />
<glyph unicode="&#xe900;" glyph-name="dial-pad" d="M324.26 746.67c0-61.265-49.665-110.93-110.93-110.93s-110.93 49.665-110.93 110.93c0 61.265 49.665 110.93 110.93 110.93s110.93-49.665 110.93-110.93zM622.93 746.67c0-61.266-49.705-110.93-110.93-110.93-61.266 0-110.93 49.664-110.93 110.93s49.664 110.93 110.93 110.93c61.225 0 110.93-49.664 110.93-110.93zM921.6 746.67c0-61.266-49.705-110.93-110.93-110.93-61.235 0-110.94 49.664-110.94 110.93s49.705 110.93 110.94 110.93c61.225 0 110.93-49.664 110.93-110.93zM324.26 448c0-61.265-49.665-110.93-110.93-110.93s-110.93 49.665-110.93 110.93c0 61.265 49.665 110.93 110.93 110.93s110.93-49.665 110.93-110.93zM622.93 448c0-61.266-49.705-110.93-110.93-110.93-61.266 0-110.93 49.664-110.93 110.93s49.664 110.93 110.93 110.93c61.225 0 110.93-49.664 110.93-110.93zM921.6 448c0-61.266-49.705-110.93-110.93-110.93-61.235 0-110.94 49.664-110.94 110.93s49.705 110.93 110.94 110.93c61.225 0 110.93-49.664 110.93-110.93zM622.93 149.33c0-61.256-49.705-110.93-110.93-110.93-61.266 0-110.93 49.674-110.93 110.93 0 61.266 49.664 110.94 110.93 110.94 61.225 0 110.93-49.674 110.93-110.94z" />
<glyph unicode="&#xe901;" glyph-name="thumbtack" d="M861.867 489.259l-145.451-94.123c-26.946-17.623-44.501-47.655-44.501-81.788 0-0.017 0-0.033 0-0.050v0.003c0-0.007 0-0.014 0-0.022 0-85.328-34.601-162.574-90.537-218.473l-0.001-0.001-422.4 422.4c55.879 55.877 133.061 90.451 218.317 90.496h0.008c0.014 0 0.031 0 0.047 0 34.132 0 64.164 17.556 81.559 44.13l0.228 0.372 94.123 145.451c9.085 20.37 29.158 34.312 52.487 34.312 19.073 0 35.969-9.318 46.385-23.651l0.114-0.165 219.904-219.904c14.544-10.526 23.897-27.449 23.897-46.557 0-23.279-13.881-43.315-33.818-52.284l-0.362-0.146zM105.301 86.613c-5.752-5.803-9.306-13.793-9.306-22.613s3.554-16.81 9.308-22.616l-0.002 0.002c5.78-5.803 13.777-9.394 22.613-9.394s16.833 3.591 22.612 9.393l242.006 241.921-45.355 45.227z" />
<glyph unicode="&#xe902;" glyph-name="stopwatch" d="M352 832c0 17.673 14.327 32 32 32v0h213.333c17.673 0 32-14.327 32-32s-14.327-32-32-32v0h-213.333c-17.673 0-32 14.327-32 32v0zM810.667 384c0.001-0.252 0.001-0.55 0.001-0.849 0-177.202-143.651-320.853-320.853-320.853s-320.853 143.651-320.853 320.853c0 177.202 143.651 320.853 320.853 320.853 71.994 0 138.451-23.712 191.985-63.752l-0.839 0.601 64.427 64.427c5.699 5.321 13.376 8.588 21.815 8.588 17.673 0 32-14.327 32-32 0-8.44-3.267-16.116-8.606-21.834l0.017 0.019-62.293-62.293c51.078-56.272 82.347-131.335 82.347-213.701 0-0.021 0-0.042 0-0.063v0.003zM595.2 345.6l-72.533 54.4v133.333c0 17.673-14.327 32-32 32s-32-14.327-32-32v0-149.333c0-10.433 4.993-19.7 12.72-25.542l0.080-0.058 85.333-64c5.281-3.996 11.96-6.4 19.2-6.4 17.673 0 32 14.327 32 32 0 10.433-4.993 19.7-12.72 25.542l-0.080 0.058z" />
<glyph unicode="&#xe903;" glyph-name="down-arrow" d="M795.563 688.896l-283.563-283.563-283.563 283.563c-14.783 14.788-35.209 23.936-57.771 23.936-45.113 0-81.685-36.572-81.685-81.685 0-22.551 9.139-42.968 23.915-57.75l384-384c3.862-3.872 9.203-6.267 15.104-6.267s11.242 2.396 15.104 6.267v0l384 384c14.776 14.781 23.914 35.198 23.914 57.749 0 45.113-36.572 81.685-81.685 81.685-22.562 0-42.988-9.147-57.77-23.935v0z" />
<glyph unicode="&#xe904;" glyph-name="double-chevron" d="M511.997 446.397c0-10.237-3.066-20.475-8.7-28.153l-256.003-384c-9.216-13.828-24.572-23.044-42.497-23.044h-153.6c-28.153 0-51.197 23.044-51.197 51.197 0 10.247 3.075 20.484 8.7 28.162l237.056 355.837-237.056 355.847c-5.625 7.678-8.7 17.916-8.7 28.153 0 28.162 23.044 51.206 51.197 51.206h153.6c17.925 0 33.281-9.216 42.497-23.044l256.003-384c5.634-7.678 8.7-17.916 8.7-28.162zM1024.003 446.397c0-10.237-3.075-20.475-8.709-28.153l-255.994-384c-9.216-13.828-24.581-23.044-42.497-23.044h-153.6c-28.162 0-51.206 23.044-51.206 51.197 0 10.247 3.075 20.484 8.709 28.162l237.056 355.837-237.056 355.847c-5.634 7.678-8.709 17.916-8.709 28.153 0 28.162 23.044 51.206 51.206 51.206h153.6c17.916 0 33.281-9.216 42.497-23.044l255.994-384c5.634-7.678 8.709-17.916 8.709-28.162z" />
<glyph unicode="&#xe905;" glyph-name="search" d="M469.333 789.333c-164.949 0-298.667-133.718-298.667-298.667s133.718-298.667 298.667-298.667c164.949 0 298.667 133.717 298.667 298.667s-133.717 298.667-298.667 298.667zM85.333 490.667c0 212.077 171.923 384 384 384 212.079 0 384-171.923 384-384 0-90.633-31.398-173.931-83.908-239.612l156.757-156.898c16.657-16.67 16.644-43.686-0.026-60.339-16.67-16.657-43.686-16.644-60.339 0.026l-156.719 156.86c-65.702-52.587-149.060-84.036-239.765-84.036-212.077 0-384 171.921-384 384zM426.667 704c0 23.564 19.102 42.667 42.667 42.667 141.385 0 256-114.615 256-256 0-23.565-19.102-42.667-42.667-42.667s-42.667 19.102-42.667 42.667c0 94.257-76.412 170.667-170.667 170.667-23.565 0-42.667 19.103-42.667 42.667z" />
<glyph unicode="&#xe906;" glyph-name="user" d="M331.038 832h361.924c34.347 0 62.69 0.001 85.781-1.885 23.983-1.96 46.029-6.165 66.739-16.716 32.111-16.363 58.219-42.471 74.581-74.584 10.551-20.707 14.758-42.754 16.717-66.736 1.886-23.091 1.886-51.437 1.886-85.782v-276.592c0-34.347 0-62.69-1.886-85.781-1.958-23.983-6.165-46.029-16.717-66.739-16.363-32.111-42.47-58.219-74.581-74.581-20.71-10.551-42.756-14.758-66.739-16.717-23.091-1.886-51.435-1.886-85.781-1.886h-361.925c-34.345 0-62.691 0-85.782 1.886-23.983 1.958-46.029 6.165-66.736 16.717-32.113 16.363-58.222 42.47-74.584 74.581-10.551 20.71-14.756 42.756-16.716 66.739-1.886 23.091-1.886 51.435-1.885 85.781v276.591c0 34.345-0.001 62.691 1.885 85.783 1.96 23.983 6.165 46.029 16.716 66.736 16.363 32.113 42.471 58.222 74.584 74.584 20.707 10.551 42.754 14.756 66.736 16.716 23.091 1.886 51.437 1.886 85.783 1.885zM252.204 745.065c-18.706-1.528-28.272-4.299-34.945-7.699-16.056-8.181-29.111-21.236-37.292-37.292-3.4-6.673-6.17-16.239-7.699-34.945-1.569-19.204-1.602-44.048-1.602-80.596v-273.067c0-36.548 0.033-61.393 1.602-80.597 1.528-18.705 4.299-28.271 7.699-34.944 8.181-16.055 21.236-29.111 37.292-37.291 6.673-3.401 16.239-6.17 34.945-7.697 19.204-1.57 44.048-1.604 80.596-1.604h358.4c36.548 0 61.393 0.034 80.597 1.604 18.705 1.527 28.271 4.297 34.944 7.697 16.055 8.179 29.111 21.235 37.291 37.291 3.401 6.673 6.17 16.239 7.697 34.944 1.57 19.204 1.604 44.049 1.604 80.597v273.067c0 36.547-0.034 61.392-1.604 80.596-1.527 18.706-4.297 28.272-7.697 34.945-8.179 16.056-21.235 29.111-37.291 37.292-6.673 3.4-16.239 6.17-34.944 7.699-19.204 1.569-44.049 1.602-80.597 1.602h-358.4c-36.547 0-61.392-0.033-80.596-1.602zM426.667 554.667c0 47.128 38.204 85.333 85.333 85.333s85.333-38.205 85.333-85.333c0-47.13-38.204-85.333-85.333-85.333s-85.333 38.204-85.333 85.333zM512 341.333c-48.853 0-80.38-27.964-86.593-52.958-5.684-22.869-28.83-36.8-51.699-31.117-22.868 5.687-36.799 28.83-31.115 51.699 17.991 72.38 91.881 117.709 169.407 117.709s151.415-45.329 169.408-117.709c5.683-22.869-8.247-46.012-31.117-51.699-22.869-5.683-46.012 8.247-51.699 31.117-6.212 24.994-37.739 52.958-86.592 52.958z" />
<glyph unicode="&#xe907;" glyph-name="dots-menu" d="M122.895 950.838c-66.030 0-119.743-53.716-119.743-119.743s53.69-119.739 119.743-119.739 119.743 53.713 119.743 119.739-53.716 119.743-119.743 119.743zM510.441 950.838c-66.027 0-119.743-53.716-119.743-119.743s53.716-119.739 119.743-119.739c66.030 0 119.754 53.713 119.754 119.739s-53.702 119.743-119.754 119.743zM904.257 711.352c66.015 0 119.743 53.713 119.743 119.739s-53.683 119.747-119.743 119.747-119.743-53.716-119.743-119.743 53.724-119.743 119.743-119.743zM119.765 327.658c66.027 0 119.754 53.702 119.754 119.739 0 66.041-53.727 119.754-119.754 119.754s-119.765-53.716-119.765-119.754c0-66.038 53.739-119.739 119.765-119.739zM507.311 327.658c66.015 0 119.743 53.702 119.743 119.739 0 66.041-53.683 119.754-119.743 119.754-66.049 0-119.743-53.713-119.743-119.754 0-66.038 53.716-119.739 119.743-119.739zM901.161 327.658c66.041 0 119.743 53.702 119.743 119.739 0 66.041-53.702 119.754-119.743 119.754s-119.787-53.713-119.787-119.754c0-66.038 53.727-119.739 119.787-119.739zM122.505 184.648c-66.027 0-119.765-53.702-119.765-119.743 0-66.015 53.739-119.739 119.765-119.739s119.739 53.698 119.739 119.739-53.713 119.743-119.739 119.743zM510.074 184.648c-66.030 0-119.765-53.702-119.765-119.743 0-66.015 53.716-119.739 119.765-119.739 66.015 0 119.739 53.698 119.739 119.739s-53.724 119.743-119.739 119.743zM903.879 184.648c-66.015 0-119.743-53.702-119.743-119.743 0-66.015 53.727-119.739 119.743-119.739 66.041 0 119.743 53.698 119.743 119.739s-53.727 119.743-119.743 119.743z" />
<glyph unicode="&#xe908;" glyph-name="star" d="M957.152 520l-199.328-194.304 47.072-274.432c2.048-12-2.88-24.128-12.736-31.296-5.568-4.064-12.192-6.112-18.816-6.112-5.088 0-10.208 1.216-14.88 3.68l-246.464 129.568-246.432-129.536c-10.752-5.696-23.84-4.768-33.696 2.432-9.856 7.168-14.784 19.296-12.736 31.296l47.072 274.432-199.36 194.272c-8.704 8.512-11.872 21.248-8.096 32.8s13.792 20.032 25.856 21.792l275.488 40 123.2 249.664c10.784 21.856 46.624 21.856 57.408 0l123.2-249.664 275.488-40c12.064-1.76 22.080-10.208 25.856-21.792s0.608-24.256-8.096-32.8z" />
<glyph unicode="&#xe909;" glyph-name="prev1" d="M637.397 48.896c14.781-14.776 35.198-23.914 57.749-23.914 45.113 0 81.685 36.572 81.685 81.685 0 22.562-9.147 42.988-23.935 57.77l-283.563 283.563 283.563 283.563c14.788 14.783 23.936 35.209 23.936 57.771 0 45.113-36.572 81.685-81.685 81.685-22.551 0-42.968-9.139-57.75-23.915l-384-384c-3.872-3.862-6.267-9.203-6.267-15.104s2.396-11.242 6.267-15.104v0z" />
<glyph unicode="&#xe90a;" glyph-name="notepad" d="M1023.74 701.396c-1.21 10.54-6.56 20.165-14.869 26.761l-125.31 99.473c-17.299 13.731-42.46 10.843-56.195-6.46l-327.555-412.633c-48.456-61.039-72.045-136.258-67.313-213.458l-39.846-50.198c-13.733-17.301-10.841-42.462 6.46-56.195 17.303-13.735 42.462-10.843 56.197 6.46l39.846 50.196c46.978 7.95 90.774 26.209 128.816 53.322v-182.645h-543.975v783.963h71.997v-39.998c0-22.091 17.907-39.998 39.998-39.998s39.998 17.907 39.998 39.998v39.998h79.996v-39.998c0-22.091 17.907-39.998 39.998-39.998s39.998 17.907 39.998 39.998v39.998h79.996v-39.998c0-22.091 17.907-39.998 39.998-39.998s39.998 17.907 39.998 39.998v39.998h111.995c22.091 0 39.998 17.907 39.998 39.998s-17.907 39.998-39.998 39.998h-111.995v39.998c0 22.091-17.907 39.998-39.998 39.998s-39.998-17.907-39.998-39.998v-39.998h-79.996v39.998c0 22.091-17.907 39.998-39.998 39.998s-39.998-17.907-39.998-39.998v-39.998h-79.996v39.998c0 22.091-17.907 39.998-39.998 39.998s-39.998-17.907-39.998-39.998v-39.998h-111.995c-22.091 0-39.998-17.907-39.998-39.998v-863.96c0-22.091 17.907-39.998 39.998-39.998h623.971c22.091 0 39.998 17.907 39.998 39.998v303.704l311.361 392.238c6.596 8.308 9.622 18.897 8.412 29.435zM625.121 309.065c-29.403-37.038-68.423-63.697-112.589-77.496 3.42 46.144 20.531 90.196 49.932 127.232l302.688 381.306 62.655-49.738zM551.974 599.993c0 22.091-17.907 39.998-39.998 39.998h-319.985c-22.091 0-39.998-17.907-39.998-39.998s17.907-39.998 39.998-39.998h319.985c22.091 0 39.998 17.907 39.998 39.998zM391.982 440c0 22.091-17.907 39.998-39.998 39.998h-159.993c-22.091 0-39.998-17.907-39.998-39.998s17.907-39.998 39.998-39.998h159.993c22.091 0 39.998 17.907 39.998 39.998zM191.991 320.006c-22.091 0-39.998-17.907-39.998-39.998s17.907-39.998 39.998-39.998h79.996c22.091 0 39.998 17.907 39.998 39.998s-17.907 39.998-39.998 39.998z" />
<glyph unicode="&#xe90b;" glyph-name="steering-wheel" d="M512 960c-282.968 0-512-228.994-512-512 0-282.968 228.994-512 512-512 282.968 0 512 228.994 512 512 0 282.968-228.994 512-512 512zM512 16c-238.754 0-432 193.214-432 432 0 238.754 193.214 432 432 432 238.754 0 432-193.214 432-432 0-238.754-193.214-432-432-432zM512 800c-194.094 0-352-157.906-352-352 0-193.346 157.1-352 352-352 193.984 0 352 157.886 352 352 0 194.094-157.906 352-352 352zM472 717.052c13.058 1.932 26.412 2.948 40 2.948s26.942-1.014 40-2.948v-155.932c-12.52 4.44-25.978 6.88-40 6.88s-27.48-2.44-40-6.88zM512 488c22.056 0 40-17.944 40-40s-17.944-40-40-40-40 17.944-40 40 17.944 40 40 40zM240 448c0 106.934 62.036 199.636 152 244.052v-174.77l-151.382-87.4c-0.396 5.99-0.618 12.028-0.618 18.118zM258.998 348.118l135.044 77.968c5.1-27.512 19.604-51.748 40.058-69.25l-134.986-77.934c-16.572 20.816-30.166 44.1-40.116 69.216zM512 176c-55.958 0-108.020 16.992-151.308 46.078l151.308 87.358 151.308-87.358c-43.288-29.086-95.35-46.078-151.308-46.078zM724.888 278.9l-134.986 77.934c20.452 17.502 34.956 41.738 40.058 69.25l135.044-77.968c-9.952-25.114-23.546-48.398-40.116-69.216zM632 517.282v174.77c89.964-44.416 152-137.118 152-244.052 0-6.090-0.222-12.128-0.618-18.118z" />
<glyph unicode="&#xe90c;" d="M512 688.172c-145.803 0-264-118.197-264-264s118.197-264 264-264c145.803 0 264 118.197 264 264v0c0 145.803-118.197 264-264 264v0zM512 608.172c83.545-0.14 154.033-55.877 176.453-132.182l0.328-1.302c-49.684 33.506-110.899 53.484-176.781 53.484s-127.098-19.978-177.919-54.207l1.137 0.722c22.748 77.608 93.237 133.345 176.765 133.485h0.016zM329.803 399.826c68.638-27.843 120.793-84.029 142.588-153.639l0.466-1.728c-75.247 16.964-132.37 78.238-142.945 154.4l-0.11 0.966zM512 368.172c-26.51 0-48 21.49-48 48s21.49 48 48 48c26.51 0 48-21.49 48-48v0c0-26.51-21.49-48-48-48v0zM551.143 244.46c22.263 71.337 74.417 127.523 141.423 154.778l1.632 0.587c-10.685-77.128-67.808-138.402-141.822-155.131l-1.233-0.234z" />
<glyph unicode="&#xe90d;" d="M948.925 763.757c-250.15-34.383-415.623 178.022-418.863 180.435-4.533 4.812-10.948 7.808-18.062 7.808s-13.529-2.996-18.051-7.796l-0.012-0.012c-2.907-2.164-170.039-214.52-418.863-180.435-0.971 0.139-2.092 0.218-3.232 0.218-13.266 0-24.021-10.746-24.037-24.008v-260.134c1.361-270.043 198.978-493.526 457.444-535.184l3.123-0.415c1.083-0.148 2.334-0.232 3.605-0.232 1.47 0 2.913 0.113 4.321 0.33l-0.157-0.020c261.37 42.245 458.75 265.639 460.051 535.383l0.001 0.138v260.132c-0.007 13.263-10.76 24.011-24.024 24.011-1.145 0-2.27-0.080-3.372-0.235l0.127 0.015zM928.174 479.834c-1.28-236.242-167.241-433.358-388.863-482.471l-3.301-0.614v91.273c0 13.26-10.75 24.010-24.010 24.010s-24.010-10.75-24.010-24.010v0-91.319c-224.972 49.673-390.972 246.846-392.164 482.999l-0.001 0.132v233.441c140.364-10.684 279.791 44.456 392.164 154.294v-107.267c0-13.26 10.75-24.010 24.010-24.010s24.010 10.75 24.010 24.010v0 107.276c112.461-109.885 251.908-165.003 392.164-154.304z" />
<glyph unicode="&#xe90e;" d="M291.383 678.727c-4.342 4.344-10.342 7.031-16.969 7.031s-12.627-2.687-16.969-7.031v0c-65.149-65.145-105.445-155.144-105.445-254.555s40.296-189.41 105.445-254.554v0c4.343-4.343 10.342-7.029 16.969-7.029 13.253 0 23.998 10.744 23.998 23.998 0 6.627-2.686 12.626-7.029 16.969v0c-56.461 56.461-91.383 134.461-91.383 220.617s34.922 164.156 91.382 220.617v0c4.344 4.342 7.031 10.342 7.031 16.969s-2.687 12.627-7.031 16.969v0z" />
<glyph unicode="&#xe90f;" d="M732.617 678.727c-4.344-4.342-7.031-10.342-7.031-16.969s2.687-12.627 7.031-16.969v0c56.461-56.461 91.383-134.461 91.383-220.617s-34.922-164.156-91.382-220.617v0c-4.343-4.343-7.029-10.342-7.029-16.969 0-13.253 10.744-23.998 23.998-23.998 6.627 0 12.626 2.686 16.969 7.029v0c65.149 65.145 105.445 155.144 105.445 254.555s-40.296 189.41-105.445 254.554v0c-4.342 4.344-10.342 7.031-16.969 7.031s-12.627-2.687-16.969-7.031v0z" />
<glyph unicode="&#xe910;" d="M960 952h-896c-30.912-0.039-55.961-25.088-56-55.996v-592.004c0.039-30.912 25.088-55.961 55.996-56h331.527c13.255 0 24 10.745 24 24s-10.745 24-24 24v0h-331.523c-4.394 0.060-7.94 3.606-8 7.994v592.006c0.060 4.394 3.606 7.94 7.994 8h896.006c4.395-0.057 7.943-3.605 8-7.995v-442.568c0-13.255 10.745-24 24-24s24 10.745 24 24v0 442.563c-0.039 30.912-25.088 55.961-55.996 56h-0.004z" />
<glyph unicode="&#xe911;" d="M448 832h-320c-0.001 0-0.002 0-0.004 0-13.253 0-23.996-10.744-23.996-23.996 0-0.001 0-0.003 0-0.004v0-416c0-0.001 0-0.002 0-0.004 0-13.253 10.744-23.996 23.996-23.996 0.001 0 0.003 0 0.004 0h320c0.001 0 0.002 0 0.004 0 13.253 0 23.996 10.744 23.996 23.996 0 0.001 0 0.003 0 0.004v0 416c0 0.001 0 0.002 0 0.004 0 13.253-10.744 23.996-23.996 23.996-0.001 0-0.003 0-0.004 0v0zM424 784v-324.255c-33.719 37.075-82.153 60.255-136 60.255s-102.281-23.18-135.867-60.106l-0.133-0.149v324.255zM397.591 416h-219.182c24.861 34.096 64.668 56 109.591 56s84.73-21.904 109.323-55.615l0.268-0.385z" />
<glyph unicode="&#xe912;" d="M288 552c47.594 0.057 86.162 38.624 86.219 86.213v19.568c0 47.617-38.601 86.219-86.219 86.219s-86.219-38.601-86.219-86.219v0-19.563c0.057-47.594 38.624-86.162 86.213-86.219h0.005zM249.781 657.781c0 21.108 17.111 38.219 38.219 38.219s38.219-17.111 38.219-38.219v-19.563c0-21.108-17.111-38.219-38.219-38.219s-38.219 17.111-38.219 38.219v0z" />
<glyph unicode="&#xe913;" d="M880 712h-320c-13.255 0-24-10.745-24-24s10.745-24 24-24v0h320c13.255 0 24 10.745 24 24s-10.745 24-24 24v0z" />
<glyph unicode="&#xe914;" d="M656 600h-96c-13.255 0-24-10.745-24-24s10.745-24 24-24v0h96c13.255 0 24 10.745 24 24s-10.745 24-24 24v0z" />
<glyph unicode="&#xe915;" d="M880 824h-320c-13.255 0-24-10.745-24-24s10.745-24 24-24v0h320c13.255 0 24 10.745 24 24s-10.745 24-24 24v0z" />
<glyph unicode="&#xe916;" d="M823.106 74.168c0.053-8.947 1.994-17.428 5.446-25.081l-0.158 0.391c35.537 18.369 63.783 46.62 81.651 81.115l0.493 1.047c-7.246 3.261-15.704 5.179-24.604 5.223h-0.016c-34.647-0.005-62.74-28.057-62.812-62.688v-0.007z" />
<glyph unicode="&#xe917;" d="M602.168 136.863c-8.949-0.041-17.439-1.958-25.112-5.379l0.397 0.158c18.358-35.537 46.597-63.786 81.080-81.662l1.046-0.493c3.295 7.259 5.238 15.736 5.292 24.661v0.019c-0.041 34.612-28.091 62.658-62.699 62.695h-0.004z" />
<glyph unicode="&#xe918;" d="M916.656 287.369c-28.768 68.38-95.21 115.518-172.661 115.518-77.427 0-143.851-47.108-172.175-114.227l-0.46-1.227c49.97 27.135 109.416 43.087 172.588 43.087 63.22 0 122.708-15.976 174.647-44.112l-1.939 0.961z" />
<glyph unicode="&#xe919;" d="M743.997 219.644c-0.001 0-0.003 0-0.004 0-11.807 0-21.379-9.572-21.379-21.379s9.572-21.379 21.379-21.379c11.807 0 21.379 9.572 21.379 21.379 0 0.001 0 0.003 0 0.004v0c-0.015 11.799-9.576 21.36-21.373 21.375h-0.001z" />
<glyph unicode="&#xe91a;" d="M744 488.001c-150.221 0-272-121.779-272-272s121.779-272 272-272c150.221 0 272 121.779 272 272v0c-0.177 150.15-121.85 271.823-271.983 272h-0.017zM955.497 134.5c-33.565-85.756-115.57-145.387-211.502-145.387-95.842 0-177.782 59.518-210.877 143.61l-0.533 1.537c-0.056 0.193-0.157 0.368-0.206 0.563-9.666 24.271-15.272 52.398-15.272 81.834 0 125.308 101.582 226.891 226.891 226.891s226.891-101.582 226.891-226.891c0-29.474-5.62-57.635-15.847-83.47l0.536 1.536z" />
<glyph unicode="&#xe91b;" d="M743.981 290.519c-0.696 0.006-1.518 0.009-2.341 0.009-68.951 0-132.741-22.098-184.673-59.598l0.928 0.638c-0.471-4.849-0.739-10.483-0.739-16.179 0-16.507 2.255-32.487 6.473-47.65l-0.296 1.247c11.654 5.020 25.221 7.94 39.469 7.94 56.373 0 102.072-45.699 102.072-102.072 0-14.26-2.924-27.837-8.206-40.164l0.253 0.665c14.118-3.963 30.33-6.241 47.074-6.241 16.735 0 32.939 2.276 48.319 6.534l-1.27-0.3c-4.949 11.456-7.861 24.787-7.939 38.79v0.030c0.101 56.717 46.086 102.661 102.809 102.695h0.003c14-0.073 27.305-2.964 39.405-8.132l-0.664 0.252c3.922 13.914 6.177 29.893 6.177 46.398 0 5.687-0.268 11.311-0.791 16.861l0.054-0.709c-51.057 36.884-114.905 58.994-183.918 58.994-0.774 0-1.547-0.003-2.319-0.008l0.118 0.001zM743.997 136.887c-0.001 0-0.003 0-0.004 0-33.899 0-61.379 27.48-61.379 61.379s27.48 61.379 61.379 61.379c33.897 0 61.377-27.478 61.379-61.375v0c-0.037-33.883-27.493-61.341-61.371-61.384h-0.004z" />
<glyph unicode="&#xe91c;" d="M935.055 822.934l-416 128c-2.11 0.677-4.537 1.066-7.055 1.066s-4.945-0.39-7.224-1.113l0.169 0.046-416-128c-9.894-3.11-16.945-12.199-16.945-22.936 0-0.001 0-0.001 0-0.002v0-328.374c0.302-260.527 185.881-477.622 432.044-526.625l3.425-0.569c1.362-0.273 2.929-0.43 4.531-0.43s3.169 0.156 4.684 0.455l-0.153-0.025c249.588 49.572 435.167 266.666 435.469 527.16v328.407c0 0.001 0 0.001 0 0.002 0 10.736-7.051 19.825-16.775 22.889l-0.17 0.046zM904 471.623c-0.287-226.938-154.944-417.675-364.588-472.862l-3.412-0.763v114.009c0 13.255-10.745 24-24 24s-24-10.745-24-24v0-114.009c-213.055 55.949-367.712 246.686-368 473.592v310.68l368 113.232v-111.482c0-13.255 10.745-24 24-24s24 10.745 24 24v0 111.482l368-113.232z" />
<glyph unicode="&#xe91d;" d="M512 711.997c-145.802-0.001-263.998-118.197-263.998-263.999s118.196-263.999 263.999-263.999c145.803 0 263.999 118.196 263.999 263.999v0c-0.17 145.734-118.265 263.829-263.984 263.999h-0.016zM640.055 502.162l-160-144c-4.234-3.823-9.872-6.163-16.057-6.163-7.561 0-14.305 3.496-18.704 8.96l-0.036 0.046-64 80c-3.276 4.068-5.258 9.299-5.258 14.992 0 13.255 10.745 24.001 24.001 24.001 7.562 0 14.307-3.497 18.706-8.962l0.036-0.046 48.109-60.14 141.094 126.984c4.234 3.823 9.871 6.161 16.055 6.161 13.253 0 23.997-10.744 23.997-23.997 0-7.070-3.057-13.425-7.922-17.817l-0.021-0.019z" />
<glyph unicode="&#xe91e;" d="M240 408c-128.13 0-232-103.87-232-232s103.87-232 232-232c128.13 0 232 103.87 232 232v0c-0.152 128.069-103.931 231.848-231.985 232h-0.015zM371.406 241.891l-128-176c-4.413-6.023-11.461-9.889-19.411-9.889-7.271 0-13.787 3.234-18.187 8.343l-0.026 0.031-96 112c-3.601 4.174-5.794 9.65-5.794 15.638 0 13.256 10.746 24.001 24.001 24.001 7.279 0 13.802-3.241 18.204-8.358l0.027-0.032 76.234-88.937 110.141 151.422c4.413 6.019 11.458 9.884 19.406 9.884 13.251 0 23.993-10.742 23.993-23.993 0-5.303-1.721-10.205-4.634-14.177l0.047 0.067z" />
<glyph unicode="&#xe91f;" d="M944 760h-32c-39.747-0.045-71.955-32.253-72-71.996v-592.004c0.005-3.913 0.939-7.606 2.595-10.872l-0.063 0.138 64-128c4.039-7.916 12.132-13.243 21.469-13.243s17.43 5.327 21.406 13.108l0.063 0.136 64 128c1.592 3.128 2.526 6.822 2.531 10.733v592.002c-0.045 39.747-32.253 71.955-71.996 72h-0.004zM912 712h32c13.249-0.015 23.985-10.751 24-23.999v-56.001h-80v56c0.015 13.249 10.751 23.985 23.999 24h0.001zM928 21.672l-40 80v482.328h80v-482.328z" />
<glyph unicode="&#xe920;" d="M32 373.094c13.253 0.003 23.997 10.747 24 24v0 482.906c0.015 13.249 10.751 23.985 23.999 24h408.001v-152c0.045-39.747 32.253-71.955 71.996-72h152.004v-664c-0.015-13.249-10.751-23.985-23.999-24h-208.001c-13.255 0-24-10.745-24-24s10.745-24 24-24v0h208c39.747 0.045 71.955 32.253 72 71.996v688.004c-0.008 6.634-2.7 12.638-7.048 16.985l-223.97 223.97c-4.347 4.347-10.35 7.038-16.981 7.045h-432.001c-39.747-0.045-71.955-32.253-72-71.996v-482.91c0.004-13.253 10.747-23.996 24-24v0zM536 752v118.063l142.063-142.063h-118.063c-13.249 0.015-23.985 10.751-24 23.999v0.001z" />
<glyph unicode="&#xe921;" d="M128 776h256c13.255 0 24 10.745 24 24s-10.745 24-24 24v0h-256c-13.255 0-24-10.745-24-24s10.745-24 24-24v0z" />
<glyph unicode="&#xe922;" d="M128 680h192c13.255 0 24 10.745 24 24s-10.745 24-24 24v0h-192c-13.255 0-24-10.745-24-24s10.745-24 24-24v0z" />
<glyph unicode="&#xe923;" d="M128 552h512c13.255 0 24 10.745 24 24s-10.745 24-24 24v0h-512c-13.255 0-24-10.745-24-24s10.745-24 24-24v0z" />
<glyph unicode="&#xe924;" d="M128 456h512c13.255 0 24 10.745 24 24s-10.745 24-24 24v0h-512c-13.255 0-24-10.745-24-24s10.745-24 24-24v0z" />
<glyph unicode="&#xe925;" d="M448 360h192c13.255 0 24 10.745 24 24s-10.745 24-24 24v0h-192c-13.255 0-24-10.745-24-24s10.745-24 24-24v0z" />
<glyph unicode="&#xe926;" d="M640 120h-96c-13.255 0-24-10.745-24-24s10.745-24 24-24v0h96c13.255 0 24 10.745 24 24s-10.745 24-24 24v0z" />
<glyph unicode="&#xe927;" d="M744 352c-0.004 13.253-10.747 23.996-24 24h-416c-13.255 0-24-10.745-24-24s10.745-24 24-24v0h184v-360c0-13.255 10.745-24 24-24s24 10.745 24 24v0 360h184c13.253 0.004 23.996 10.747 24 24v0z" />
<glyph unicode="&#xe928;" d="M1016 520c0 0.057 0 0.125 0 0.193 0 79.529-64.471 144-144 144s-144-64.471-144-144c0-57.234 33.39-106.669 81.753-129.888l0.865-0.374c-11.604-14.701-18.615-33.497-18.618-53.93v-56.001h-120c-48.576-0.062-87.938-39.424-88-87.994v-224.006c0.004-13.253 10.747-23.996 24-24h128c13.253 0.004 23.996 10.747 24 24v0 136h152c30.912 0.039 55.961 25.088 56 55.996v176.004c-0.010 23.119-8.978 44.142-23.621 59.788l0.045-0.049c43.058 25.376 71.51 71.488 71.575 124.251v0.010zM920 160c-0.009-4.415-3.585-7.991-7.999-8h-176.001c-13.253-0.004-23.996-10.747-24-24v0-136h-80v200c0.021 22.083 17.917 39.979 39.998 40h144.002c13.253 0.004 23.996 10.747 24 24v0 80c0 22.091 17.909 40 40 40s40-17.909 40-40v0zM872 424c-53.019 0-96 42.981-96 96s42.981 96 96 96c53.019 0 96-42.981 96-96v0c-0.060-52.995-43.005-95.94-95.994-96h-0.006z" />
<glyph unicode="&#xe929;" d="M352 280h-120v56c-0.004 20.433-7.014 39.229-18.759 54.115l0.141-0.185c49.238 23.592 82.635 73.034 82.635 130.276 0 79.534-64.475 144.009-144.009 144.009s-144.009-64.475-144.009-144.009c0-52.848 28.467-99.047 70.904-124.1l0.671-0.367c-14.597-15.597-23.565-36.62-23.575-59.737v-176.002c0.039-30.912 25.088-55.961 55.996-56h152.004v-136c0.004-13.253 10.747-23.996 24-24h128c13.253 0.004 23.996 10.747 24 24v0 224c-0.062 48.576-39.424 87.938-87.994 88h-0.006zM56 520c0 53.019 42.981 96 96 96s96-42.981 96-96c0-53.019-42.981-96-96-96v0c-52.995 0.060-95.94 43.005-96 95.994v0.006zM392-8h-80v136c-0.004 13.253-10.747 23.996-24 24h-176c-4.415 0.009-7.991 3.585-8 7.999v176.001c0 22.091 17.909 40 40 40s40-17.909 40-40v0-80c0.004-13.253 10.747-23.996 24-24h144c22.083-0.021 39.979-17.917 40-39.998v-0.002z" />
<glyph unicode="&#xe92a;" d="M624 952h-224c-30.912-0.039-55.961-25.088-56-55.996v-51.16l-123.875-123.875c-4.327-4.343-7.002-10.334-7.002-16.951 0-13.248 10.726-23.991 23.968-24.018h106.909v-200c0.039-30.912 25.088-55.961 55.996-56h224.004c30.912 0.039 55.961 25.088 56 55.996v416.004c-0.039 30.912-25.088 55.961-55.996 56h-0.004zM608 498.18h-192c-13.255 0-24 10.745-24 24s10.745 24 24 24v0h192c13.255 0 24-10.745 24-24s-10.745-24-24-24v0zM608 598.555h-192c-13.255 0-24 10.745-24 24s10.745 24 24 24v0h192c13.255 0 24-10.745 24-24s-10.745-24-24-24v0zM624.969 836.852l-130.906-130.906c-4.342-4.344-10.341-7.030-16.967-7.030-7.675 0-14.508 3.604-18.899 9.212l-0.040 0.053-61.094 78.547c-3.136 4.016-5.029 9.136-5.029 14.699 0 13.252 10.743 23.994 23.994 23.994 7.658 0 14.477-3.587 18.871-9.173l0.039-0.052 44.407-57.094 111.688 111.688c4.343 4.343 10.342 7.029 16.969 7.029 13.253 0 23.998-10.744 23.998-23.998 0-6.627-2.686-12.626-7.029-16.969v0z" />
<glyph unicode="&#xe92b;" d="M837.17 304.025c0-22.091-17.909-40-40-40s-40 17.909-40 40c0 22.091 17.909 40 40 40s40-17.909 40-40z" />
<glyph unicode="&#xe92c;" d="M1011.155 210.635c3.046 5.143 4.845 11.335 4.845 17.947 0 9.401-3.638 17.953-9.583 24.324l0.019-0.021-25.266 27.312v47.657l25.25 27.297c5.934 6.35 9.577 14.905 9.577 24.311 0 6.609-1.799 12.798-4.934 18.105l0.091-0.166-26.125 45.266c-6.274 10.781-17.774 17.912-30.94 17.912-2.83 0-5.584-0.33-8.224-0.953l0.242 0.048-36.297-8.211-41.266 23.828-11.031 35.5c-4.593 14.729-18.107 25.234-34.075 25.234-0.050 0-0.101 0-0.151 0h-52.243c-0.040 0-0.087 0-0.134 0-15.957 0-29.464-10.49-34.001-24.951l-0.068-0.252-11.031-35.531-41.266-23.828-36.266 8.203c-2.407 0.579-5.17 0.911-8.010 0.911-13.17 0-24.673-7.138-30.851-17.757l-0.091-0.17-26.125-45.234c-3.054-5.143-4.86-11.338-4.86-17.955 0-9.401 3.644-17.951 9.597-24.315l-0.019 0.020 25.25-27.312v-47.656l-25.203-27.266c-5.959-6.348-9.62-14.915-9.62-24.337 0-6.613 1.803-12.804 4.945-18.109l-0.090 0.165 26.125-45.266c6.256-10.788 17.75-17.928 30.911-17.928 2.841 0 5.604 0.333 8.252 0.961l-0.242-0.048 28.922 6.549v-186.893c0.021-13.253 10.77-23.989 24.026-23.989 3.804 0 7.402 0.884 10.599 2.458l-0.141-0.063 88.047 42.766 82.469-42.5c3.194-1.68 6.979-2.665 10.994-2.665 13.254 0 23.999 10.741 24.006 23.993v186.897l28.937-6.553c2.4-0.577 5.157-0.907 7.99-0.907 13.17 0 24.671 7.144 30.841 17.768l0.091 0.171zM869.171 7.385l-58.156 29.968c-3.196 1.687-6.986 2.678-11.007 2.678-3.813 0-7.417-0.89-10.617-2.475l0.14 0.063-64.359-31.266v89.026c0.016 3.294 2.69 5.959 5.987 5.959 2.635 0 4.872-1.702 5.672-4.067l0.012-0.042c4.608-14.713 18.117-25.203 34.076-25.203 0.045 0 0.089 0 0.134 0h52.243c0.041 0 0.090 0 0.139 0 15.96 0 29.47 10.49 34.011 24.951l0.068 0.252c0.811 2.405 3.046 4.105 5.678 4.105 3.292 0 5.963-2.661 5.979-5.949v-0.002zM797.171 216.025c-48.601 0-88 39.399-88 88s39.399 88 88 88c48.601 0 88-39.399 88-88v0c-0.063-48.576-39.424-87.937-87.994-87.999h-0.006z" />
<glyph unicode="&#xe92d;" d="M80-56h528c13.255 0 24 10.745 24 24s-10.745 24-24 24v0h-528c-13.249 0.015-23.985 10.751-24 23.999v664.001h152c39.747 0.045 71.955 32.253 72 71.996v152.004h536c13.249-0.015 23.985-10.751 24-23.999v-288.001c0-13.255 10.745-24 24-24s24 10.745 24 24v0 288c-0.045 39.747-32.253 71.955-71.996 72h-560.004c-6.62-0.129-12.593-2.797-17.006-7.068l-223.932-223.932c-4.36-4.346-7.059-10.357-7.062-16.998v-688.001c0.045-39.747 32.253-71.955 71.996-72h0.004zM208 728h-118.063l142.063 142.063v-118.063c-0.015-13.249-10.751-23.985-23.999-24h-0.001z" />
<glyph unicode="&#xe92e;" d="M352 808h192c13.255 0 24 10.745 24 24s-10.745 24-24 24v0h-192c-13.255 0-24-10.745-24-24s10.745-24 24-24v0z" />
<glyph unicode="&#xe92f;" d="M352 712h128c13.255 0 24 10.745 24 24s-10.745 24-24 24v0h-128c-13.255 0-24-10.745-24-24s10.745-24 24-24v0z" />
<glyph unicode="&#xe930;" d="M728 576c-0.001 13.255-10.745 23.999-24 24h-512c-13.255 0-24-10.745-24-24s10.745-24 24-24v0h512c13.255 0.001 23.999 10.745 24 24v0z" />
<glyph unicode="&#xe931;" d="M192 360h320c13.255 0 24 10.745 24 24s-10.745 24-24 24v0h-320c-13.255 0-24-10.745-24-24s10.745-24 24-24v0z" />
<glyph unicode="&#xe932;" d="M552 288c-0.004 13.253-10.747 23.996-24 24h-336c-13.255 0-24-10.745-24-24s10.745-24 24-24v0h336c13.253 0.004 23.996 10.747 24 24v0z" />
<glyph unicode="&#xe933;" d="M568 480c-0.001 13.255-10.745 23.999-24 24h-352c-13.255 0-24-10.745-24-24s10.745-24 24-24v0h352c13.255 0.001 23.999 10.745 24 24v0z" />
<glyph unicode="&#xe934;" d="M429.984 114.125c-6.476 14.172-17.312 37.875-45.984 37.875-30.836 0-44.453-27.234-53.469-45.266-1.586-3.172-3.695-7.406-5.664-11.063-2.086 8.203-4.008 18.828-5.477 26.938-7.141 39.422-16.922 93.391-63.391 93.391-64.195 0-83.445-114.063-87.812-149.016-0.119-0.899-0.187-1.939-0.187-2.994 0-13.254 10.745-23.999 23.999-23.999 12.206 0 22.283 9.112 23.801 20.905l0.013 0.12c7.141 56.609 28.422 106.984 39.922 107.141 7.461-4.625 13.516-38.047 16.422-54.094 6.289-34.719 13.414-74.063 47.844-74.063 30.836 0 44.453 27.234 53.469 45.266 2.578 5.172 6.57 13.141 9.047 16.875 1.281-2.422 2.719-5.563 3.812-7.968 10.535-31.742 39.955-54.232 74.628-54.232 1.070 0 2.136 0.021 3.196 0.064l-0.152-0.005c13.255 0 24 10.745 24 24s-10.745 24-24 24v0c-22.070 0-26.312 9.281-34.016 26.125z" />
<glyph unicode="&#xe935;" d="M616 624v256c-0.045 39.747-32.253 71.955-71.996 72h-320.004c-39.747-0.045-71.955-32.253-72-71.996v-256.004c0.065-74.814 35.605-141.314 90.704-183.594l0.55-0.406h-67.255c-92.741-0.107-167.893-75.259-168-167.99v-256.010c0.045-39.747 32.253-71.955 71.996-72h448.004c13.255 0 24 10.745 24 24s-10.745 24-24 24v0h-120v258.4l29.891-13.876c2.958-1.403 6.426-2.223 10.087-2.223 13.254 0 23.999 10.745 23.999 23.999 0 9.576-5.609 17.843-13.721 21.693l-0.146 0.062-39.349 18.268 58.548 93.677h18.691c0.030 0 0.066 0 0.103 0 13.198 0 23.898 10.699 23.898 23.898 0 6.15-2.323 11.758-6.14 15.993l0.019-0.021c61.948 42.263 102.094 112.506 102.121 192.127v0.004zM224 904h320c13.249-0.015 23.985-10.751 24-23.999v-88.017h-368v88.016c0.015 13.249 10.751 23.985 23.999 24h0.001zM541.296 743.984c-40.134-39.505-95.225-63.918-156.018-63.984h-0.013c-0.032 0-0.069 0-0.107 0-60.793 0-115.88 24.43-155.979 64.007l0.024-0.023zM420.691 392l-36.691-58.706-36.691 58.706zM290.703 392l59.719-95.547-66.719-38.125-55.703 133.672zM168-8v248c0 13.255-10.745 24-24 24s-24-10.745-24-24v0-248h-40c-13.249 0.015-23.985 10.751-24 23.999v256.001c0.074 66.243 53.754 119.924 119.989 120h0.007l73.848-177.234c3.719-8.742 12.236-14.761 22.158-14.761 4.379 0 8.485 1.172 12.020 3.221l-0.115-0.062 76.094 43.483v-254.647zM384 440c-101.573 0.119-183.881 82.428-184 183.989v81.529c48.216-45.53 113.422-73.518 185.165-73.518 0.035 0 0.071 0 0.106 0h-0.005c70.57 0.11 134.792 27.197 182.926 71.496l-0.192-0.174v-79.322c-0.119-101.573-82.428-183.881-183.989-184h-0.011z" />
<glyph unicode="&#xe936;" d="M477.016 580.164c-3.675 2.4-8.175 3.828-13.009 3.828-8.414 0-15.818-4.327-20.107-10.877l-0.056-0.092c-12.161-21.262-34.18-35.675-59.663-37.016l-0.18-0.008c-25.664 1.349-47.683 15.762-59.655 36.667l-0.188 0.357c-4.341 6.644-11.743 10.974-20.156 10.974-13.254 0-23.998-10.744-23.998-23.998 0-4.84 1.433-9.346 3.898-13.116l-0.056 0.092c20.703-34.691 57.605-57.837 99.996-58.973l0.16-0.003c42.551 1.139 79.453 24.285 99.853 58.429l0.303 0.547c2.411 3.679 3.845 8.186 3.845 13.028 0 8.417-4.335 15.822-10.894 20.104l-0.092 0.056z" />
<glyph unicode="&#xe937;" d="M752 472c-145.803 0-264-118.197-264-264s118.197-264 264-264c145.803 0 264 118.197 264 264v0c-0.173 145.734-118.267 263.827-263.984 264h-0.016zM752 240c17.673 0 32-14.327 32-32s-14.327-32-32-32c-17.673 0-32 14.327-32 32v0c0 17.673 14.327 32 32 32v0zM584 208c0.13 72.619 46.276 134.427 110.83 157.828l1.17 0.371v-79.684c0 0 0-0.001 0-0.001 0-29.455-15.919-55.192-39.622-69.077l-0.378-0.204-69.066-39.875c-1.827 9.193-2.893 19.78-2.934 30.609v0.033zM752 40c-0.009 0-0.019 0-0.029 0-41.736 0-79.899 15.298-109.188 40.592l0.214-0.181 69.004 39.839c11.474 6.738 25.272 10.718 39.999 10.718s28.525-3.98 40.377-10.922l-0.378 0.204 69.004-39.839c-29.075-25.113-67.238-40.411-108.974-40.411-0.010 0-0.021 0-0.031 0h0.002zM917.066 177.358l-69.066 39.875c-24.081 14.089-40 39.826-40 69.281 0 0 0 0.001 0 0.001v0 79.684c65.767-23.424 112.001-85.15 112.001-157.673 0-11.023-1.068-21.796-3.106-32.222l0.172 1.055z" />
<glyph unicode="&#xe938;" d="M784 408c-128.13 0-232-103.87-232-232s103.87-232 232-232c128.13 0 232 103.87 232 232v0c-0.152 128.069-103.931 231.848-231.985 232h-0.015zM915.406 241.891l-128-176c-4.413-6.023-11.461-9.889-19.411-9.889-7.271 0-13.787 3.234-18.187 8.343l-0.026 0.031-96 112c-3.601 4.174-5.794 9.65-5.794 15.638 0 13.256 10.746 24.001 24.001 24.001 7.279 0 13.802-3.241 18.204-8.358l0.027-0.032 76.234-88.937 110.141 151.422c4.413 6.019 11.458 9.884 19.406 9.884 13.251 0 23.993-10.742 23.993-23.993 0-5.303-1.721-10.205-4.634-14.177l0.047 0.067z" />
<glyph unicode="&#xe939;" d="M336 632c-128.13 0-232-103.87-232-232s103.87-232 232-232c128.13 0 232 103.87 232 232v0c-0.152 128.069-103.931 231.848-231.985 232h-0.015zM336 216c-101.62 0-184 82.38-184 184s82.38 184 184 184c101.62 0 184-82.38 184-184v0c-0.122-101.571-82.429-183.878-183.988-184h-0.012z" />
<glyph unicode="&#xe93a;" d="M832 632h-128c-13.253-0.004-23.996-10.747-24-24v0-128c0.004-13.253 10.747-23.996 24-24h128c13.253 0.003 23.997 10.747 24 24v0 128c-0.004 13.253-10.747 23.996-24 24v0zM808 504h-80v80h80z" />
<glyph unicode="&#xe93b;" d="M944 856h-88v72c-0.004 13.253-10.747 23.996-24 24h-128c-13.253-0.004-23.996-10.747-24-24v0-72h-336v72c-0.004 13.253-10.747 23.996-24 24h-128c-13.253-0.004-23.996-10.747-24-24v0-72h-88c-39.747-0.045-71.955-32.253-72-71.996v-768.004c0.045-39.747 32.253-71.955 71.996-72h482.911c13.255 0 24 10.745 24 24s-10.745 24-24 24v0h-482.906c-13.249 0.015-23.985 10.751-24 23.999v664.001h912v-282.906c0-13.255 10.745-24 24-24s24 10.745 24 24v0 386.906c-0.045 39.747-32.253 71.955-71.996 72h-0.004zM728 904h80v-96h-80zM216 904h80v-96h-80zM56 728v56c0.015 13.249 10.751 23.985 23.999 24h88.001v-24c0.004-13.253 10.747-23.996 24-24h128c13.253 0.003 23.997 10.747 24 24v0 24h336v-24c0.004-13.253 10.747-23.996 24-24h128c13.253 0.003 23.997 10.747 24 24v0 24h88c13.249-0.015 23.985-10.751 24-23.999v-56.001z" />
<glyph unicode="&#xe93c;" d="M336 552c-13.253-0.004-23.996-10.747-24-24v0-118.063l-80.969-80.969c-4.343-4.343-7.029-10.342-7.029-16.969 0-13.253 10.744-23.998 23.998-23.998 6.627 0 12.626 2.686 16.969 7.029l88 88c4.343 4.343 7.029 10.342 7.031 16.968v0 128c-0.004 13.253-10.747 23.996-24 24v0z" />
<glyph unicode="&#xe93d;" d="M480 120h-320c-13.255 0-24-10.745-24-24s10.745-24 24-24v0h320c13.255 0 24 10.745 24 24s-10.745 24-24 24v0z" />
<glyph unicode="&#xe93e;" glyph-name="facebook" d="M581-62h-163.984c-27.391 0-49.672 22.281-49.672 49.672v369.875h-95.672c-27.391 0-49.672 22.289-49.672 49.672v158.492c0 27.391 22.281 49.672 49.672 49.672h95.672v79.367c0 78.695 24.711 145.648 71.453 193.609 46.953 48.18 112.57 73.641 189.758 73.641l125.063-0.203c27.344-0.047 49.586-22.328 49.586-49.672v-147.156c0-27.391-22.273-49.672-49.656-49.672l-84.203-0.031c-25.68 0-32.219-5.148-33.617-6.727-2.305-2.617-5.047-10.016-5.047-30.445v-62.703h116.539c8.773 0 17.273-2.164 24.578-6.242 15.758-8.805 25.555-25.453 25.555-43.445l-0.063-158.492c0-27.375-22.281-49.656-49.672-49.656h-116.938v-369.883c0-27.391-22.289-49.672-49.68-49.672zM427.375-1.969h143.266v386.391c0 18.289 14.883 33.164 33.164 33.164h133.453l0.055 137.766h-133.516c-18.281 0-33.156 14.875-33.156 33.164v89.578c0 23.453 2.383 50.125 20.086 70.172 21.391 24.234 55.102 27.031 78.602 27.031l73.844 0.031v126.453l-114.664 0.188c-124.047 0-201.133-79.406-201.133-207.219v-106.234c0-18.281-14.875-33.164-33.156-33.164h-112.188v-137.766h112.188c18.281 0 33.156-14.875 33.156-33.164zM753.5 901.766h0.008z" />
<glyph unicode="&#xe93f;" glyph-name="twitter" d="M607.324 526.406l373.010 433.594h-88.391l-323.885-376.484-258.686 376.484h-298.363l391.184-569.31-391.184-454.69h88.396l342.031 397.58 273.191-397.58h298.363l-405.688 590.406zM486.253 385.674l-354.997 507.782h135.772l624.957-893.939h-135.772l-269.96 386.135z" />
<glyph unicode="&#xe940;" glyph-name="instagram-logo" d="M741.403 960h-458.823c-155.814 0-282.579-126.771-282.579-282.585v-458.823c0-155.82 126.765-282.585 282.579-282.585h458.823c155.826 0 282.591 126.771 282.591 282.585v458.823c0.006 155.814-126.765 282.585-282.591 282.585zM933.146 218.591c0-105.723-86.014-191.732-191.738-191.732h-458.829c-105.717-0.006-191.726 86.008-191.726 191.732v458.823c0 105.717 86.008 191.732 191.726 191.732h458.823c105.723 0 191.738-86.014 191.738-191.732v-458.823zM511.997 711.848c-145.493 0-263.857-118.364-263.857-263.857 0-145.487 118.364-263.845 263.857-263.845s263.857 118.358 263.857 263.845c0 145.493-118.364 263.857-263.857 263.857zM511.997 275.005c-95.39 0-173.004 77.601-173.004 172.992 0 95.396 77.607 173.004 173.004 173.004s173.004-77.607 173.004-173.004c0-95.39-77.613-172.992-173.004-172.992zM786.92 788.886c-17.504 0-34.7-7.087-47.062-19.503-12.423-12.356-19.564-29.558-19.564-47.123 0-17.511 7.147-34.706 19.564-47.123 12.356-12.356 29.558-19.503 47.062-19.503 17.565 0 34.706 7.147 47.123 19.503 12.417 12.417 19.503 29.618 19.503 47.123 0 17.565-7.087 34.767-19.503 47.123-12.356 12.417-29.558 19.503-47.123 19.503z" />
<glyph unicode="&#xe941;" glyph-name="hi" d="M752 778h-480c-148.886 0-272-121.114-272-270 0-138.75 107.176-253.36 242-268.33v-91.67c0-11.074 6.094-21.24 15.85-26.456 9.62-5.16 21.488-4.708 30.792 1.494l172.44 114.962h290.918c148.886 0 272 121.114 272 270s-123.114 270-272 270zM482 388c0-16.582-13.418-30-30-30s-30 13.418-30 30v90h-60v-90c0-16.582-13.418-30-30-30s-30 13.418-30 30v240c0 16.582 13.418 30 30 30s30-13.418 30-30v-90h60v90c0 16.582 13.418 30 30 30s30-13.418 30-30zM602 388c0-16.582-13.418-30-30-30s-30 13.418-30 30v240c0 16.582 13.418 30 30 30s30-13.418 30-30zM692 358c-16.568 0-30 13.432-30 30 0 16.572 13.432 30 30 30s30-13.428 30-30c0-16.568-13.432-30-30-30zM722 508c0-16.582-13.418-30-30-30s-30 13.418-30 30v120c0 16.582 13.418 30 30 30s30-13.418 30-30z" />
<glyph unicode="&#xe942;" glyph-name="youtube" d="M669.617 494.016l-226.227 123.781c-13.008 7.117-28.383 6.852-41.133-0.703-12.758-7.563-20.367-20.922-20.367-35.75v-245.438c0-14.758 7.563-28.094 20.234-35.664 6.617-3.953 13.953-5.938 21.305-5.938 6.734 0 13.484 1.664 19.695 5.008l226.234 121.648c13.43 7.227 21.813 21.188 21.875 36.445 0.055 15.258-8.227 29.281-21.617 36.609zM441.898 366.781v183.438l169.078-92.516zM1016.469 652.945l-0.047 0.469c-0.867 8.242-9.5 81.555-45.141 118.844-41.195 43.859-87.898 49.188-110.359 51.742-1.859 0.211-3.563 0.406-5.086 0.609l-1.789 0.188c-135.375 9.844-339.82 11.187-341.867 11.195l-0.18 0.008-0.18-0.008c-2.047-0.008-206.492-1.352-343.086-11.195l-1.805-0.188c-1.453-0.195-3.055-0.375-4.797-0.578-22.203-2.563-68.406-7.898-109.719-53.344-33.945-36.891-43.758-108.633-44.766-116.695l-0.117-1.047c-0.305-3.43-7.531-85.078-7.531-167.047v-76.625c0-81.969 7.227-163.617 7.531-167.055l0.055-0.516c0.867-8.109 9.492-80.078 44.969-117.383 38.734-42.391 87.711-48 114.055-51.016 4.164-0.477 7.75-0.883 10.195-1.313l2.367-0.328c78.164-7.438 323.234-11.102 333.625-11.25l0.313-0.008 0.313 0.008c2.047 0.008 206.484 1.352 341.859 11.195l1.789 0.188c1.711 0.227 3.633 0.43 5.742 0.648 22.078 2.344 68.031 7.211 108.773 52.039 33.945 36.898 43.766 108.641 44.766 116.695l0.117 1.047c0.305 3.438 7.539 85.078 7.539 167.047v76.625c-0.008 81.969-7.234 163.609-7.539 167.047zM963.992 409.273c0-75.867-6.625-154-7.25-161.172-2.547-19.758-12.898-65.148-29.438-83.125-25.5-28.055-51.695-30.836-70.82-32.859-2.313-0.242-4.453-0.477-6.391-0.719-130.938-9.469-327.664-10.922-336.727-10.977-10.164 0.148-251.648 3.844-327.43 10.883-3.883 0.633-8.078 1.117-12.5 1.617-22.43 2.57-53.133 6.086-76.742 32.055l-0.555 0.594c-16.25 16.93-26.305 59.375-28.859 82.297-0.477 5.422-7.273 84.477-7.273 161.406v76.625c0 75.781 6.609 153.828 7.25 161.148 3.039 23.273 13.586 65.914 29.438 83.148 26.281 28.906 53.992 32.109 72.32 34.227 1.75 0.203 3.383 0.391 4.891 0.586 132.844 9.516 330.984 10.93 338.094 10.984 7.109-0.047 205.18-1.469 336.844-10.984 1.617-0.203 3.383-0.406 5.281-0.625 18.852-2.148 47.344-5.398 73.492-33.289l0.242-0.258c16.25-16.93 26.305-60.117 28.859-83.5 0.453-5.117 7.273-84.344 7.273-161.438z" />
<glyph unicode="&#xe943;" glyph-name="chatting" d="M708.060 896.756h-592.26c-63.86 0-115.8-51.94-115.8-115.8v-519c0-24.58 27.798-38.436 47.42-24.42l164.94 117.68c13.84 9.86 30.12 15.080 47.12 15.080h362.78c63.86 0 115.8 51.94 115.8 115.8v380.66c0 16.56-13.44 30-30 30zM562.34 533.336h-346.62c-16.56 0-30 13.42-30 30 0 16.56 13.44 30 30 30h346.62c16.56 0 30-13.44 30-30 0-16.58-13.44-30-30-30zM562.34 673.336h-346.62c-16.56 0-30 13.42-30 30 0 16.56 13.44 30 30 30h346.62c16.56 0 30-13.44 30-30 0-16.58-13.44-30-30-30zM1024 548.256v-518.98c0-24.414-27.658-38.536-47.42-24.42l-164.94 117.66c-13.84 9.86-30.12 15.080-47.12 15.080h-362.78c-63.86 0-115.8 51.96-115.8 115.82v56.88h336.32c96.94 0 175.8 78.86 175.8 175.8v177.98h110.14c63.86 0 115.8-51.96 115.8-115.82z" />
<glyph unicode="&#xe944;" glyph-name="zoom" d="M579.6 559.6h-98.6v98.6c0 22.6-18.2 40.8-40.8 40.8s-40.8-18.2-40.8-40.8v-98.6h-98.6c-22.6 0-40.8-18.2-40.8-40.8s18.2-40.8 40.8-40.8h98.6v-98.6c0-22.6 18.2-40.8 40.8-40.8s40.8 18.2 40.8 40.8v98.6h98.6c22.6 0 40.8 18.2 40.8 40.8s-18.4 40.8-40.8 40.8zM440.4 182.6c-185.8 0-336.4 150.4-336.4 336.2s150.6 336.2 336.4 336.2 336.2-150.6 336.2-336.2-150.6-336.2-336.2-336.2zM990 26.6l-226.6 226.6c59.4 72.2 95.2 164.8 95.2 265.6 0 231-187.2 418.4-418.4 418.4s-418.2-187.4-418.2-418.4 187.2-418.4 418.4-418.4c100.8 0 193.2 35.6 265.4 95l226.6-226.6c10.4-10.6 42.2-15.8 57.8 0 15.8 16 15.8 41.8-0.2 57.8z" />
<glyph unicode="&#xe945;" glyph-name="whatsapp" d="M757.707 371.596c-1.995 0.958-76.647 37.718-89.913 42.493-5.416 1.945-11.217 3.843-17.388 3.843-10.080 0-18.548-5.024-25.145-14.891-7.457-11.084-30.032-37.472-37.007-45.355-0.911-1.041-2.154-2.284-2.899-2.284-0.668 0-12.222 4.758-15.719 6.277-80.081 34.786-140.866 118.438-149.201 132.545-1.19 2.028-1.24 2.949-1.25 2.949 0.293 1.074 2.986 3.774 4.375 5.167 4.066 4.023 8.471 9.326 12.734 14.456 2.018 2.43 4.039 4.864 6.024 7.158 6.184 7.195 8.937 12.78 12.128 19.25l1.672 3.361c7.793 15.483 1.137 28.549-1.014 32.768-1.765 3.531-33.287 79.606-36.638 87.599-8.059 19.286-18.708 28.266-33.506 28.266-1.373 0 0 0-5.758-0.243-7.012-0.296-45.196-5.323-62.078-15.965-17.903-11.287-48.191-47.267-48.191-110.542 0-56.948 36.139-110.718 51.655-131.168 0.386-0.515 1.094-1.563 2.121-3.065 59.422-86.781 133.499-151.093 208.593-181.092 72.295-28.878 106.529-32.216 125.992-32.216 0.003 0 0.003 0 0.003 0 8.179 0 14.725 0.642 20.5 1.21l3.664 0.349c24.975 2.214 79.859 30.654 92.343 65.346 9.834 27.326 12.428 57.181 5.885 68.016-4.482 7.367-12.205 11.074-21.983 15.769zM521.090 960c-277.331 0-502.957-223.93-502.957-499.177 0-89.025 23.825-176.168 68.957-252.436l-86.385-254.82c-1.609-4.751-0.412-10.004 3.102-13.581 2.537-2.59 5.978-3.986 9.492-3.986 1.346 0 2.703 0.203 4.026 0.625l265.708 84.433c72.711-38.849 154.89-59.355 238.060-59.355 277.305-0.003 502.907 223.904 502.907 499.12 0 275.247-225.602 499.177-502.91 499.177zM521.090 65.682c-78.26 0-154.059 22.598-219.216 65.353-2.191 1.44-4.734 2.178-7.294 2.178-1.353 0-2.71-0.206-4.030-0.625l-133.103-42.31 42.968 126.767c1.39 4.103 0.695 8.628-1.865 12.125-49.617 67.797-75.846 147.898-75.846 231.653 0 217.909 178.715 395.194 398.383 395.194 219.641 0 398.336-177.285 398.336-395.194 0.003-217.883-178.688-395.141-398.333-395.141z" />
<glyph unicode="&#xe946;" d="M984 435.628v44.372c0 260.678-211.322 472-472 472s-472-211.322-472-472v0-44.373c-19.539-16.208-31.915-40.464-32-67.612v-144.015c0-0.002 0-0.004 0-0.006 0-27.24 12.395-51.584 31.854-67.7l0.146-0.118v-39.863c0.109-95.122 77.191-172.203 172.302-172.313h235.698c39.765 0 72 32.235 72 72s-32.235 72-72 72v0h-235.688c-15.629 0.020-28.293 12.684-28.312 28.311v39.866c19.605 16.234 32 40.579 32 67.818 0 0.002 0 0.004 0 0.006v0 144c-0.085 27.164-12.461 51.42-31.855 67.511l-0.145 0.117v44.372c0 181.149 146.851 328 328 328s328-146.851 328-328v0-44.373c-19.539-16.208-31.915-40.464-32-67.612v-144.015c0.062-48.576 39.424-87.938 87.994-88h32.006c48.576 0.062 87.938 39.424 88 87.994v144.006c-0.085 27.164-12.461 51.42-31.855 67.511l-0.145 0.117zM148.016 402.563l0.034-0.014c12.002-6.92 19.951-19.682 19.951-34.301 0-0.087 0-0.174-0.001-0.261v0.013-144c-0.021-22.083-17.917-39.979-39.998-40h-32.002c-22.083 0.021-39.979 17.917-40 39.998v144.002c0 0.074-0.001 0.161-0.001 0.248 0 14.619 7.949 27.381 19.76 34.2l0.191 0.101 0.034 0.014c5.731 3.415 12.637 5.434 20.015 5.437h32.001c7.379-0.003 14.285-2.023 20.199-5.538l-0.183 0.1zM212.312 40h235.688c13.255 0 24-10.745 24-24s-10.745-24-24-24v0h-235.688c-68.624 0.079-124.233 55.689-124.312 124.305v20.101c2.639-0.239 5.3-0.405 8-0.405h32c2.7 0 5.361 0.166 8 0.405v-20.093c0.050-42.126 34.186-76.263 76.308-76.312h0.005zM512 856c-207.562-0.242-375.759-168.438-376-375.977v-24.398c-2.656 0.25-5.328 0.375-8 0.375h-32c-2.672 0-5.344-0.125-8-0.375v24.375c0 234.169 189.831 424 424 424s424-189.831 424-424v0-24.375c-2.656 0.25-5.328 0.375-8 0.375h-32c-2.672 0-5.344-0.125-8-0.375v24.375c0 0.115 0 0.252 0 0.389 0 207.444-168.167 375.611-375.611 375.611-0.137 0-0.273 0-0.41 0h0.021zM968 224c-0.021-22.083-17.917-39.979-39.998-40h-32.002c-22.083 0.021-39.979 17.917-40 39.998v144.002c0 0.074-0.001 0.161-0.001 0.248 0 14.619 7.949 27.381 19.76 34.2l0.191 0.101 0.034 0.014c5.731 3.415 12.637 5.434 20.015 5.437h32.001c7.379-0.003 14.285-2.023 20.199-5.538l-0.183 0.1 0.034-0.014c12.002-6.92 19.951-19.682 19.951-34.301 0-0.087 0-0.174-0.001-0.261v0.013z" />
<glyph unicode="&#xe947;" d="M712 592h-400c-13.255-0.001-23.999-10.745-24-24v0-360c0.004-13.253 10.747-23.996 24-24h103.928l67.479-46.016c4.414-6.072 11.493-9.975 19.484-9.975s15.070 3.903 19.437 9.906l0.048 0.069 67.482 46.016h122.143c13.253 0.003 23.997 10.747 24 24v0 360c-0.001 13.255-10.745 23.999-24 24v0zM632 300h-240c-11.046 0-20 8.954-20 20s8.954 20 20 20v0h240c11.046 0 20-8.954 20-20s-8.954-20-20-20v0zM632 444h-240c-11.046 0-20 8.954-20 20s8.954 20 20 20v0h240c11.046 0 20-8.954 20-20s-8.954-20-20-20v0z" />
<glyph unicode="&#xe948;" glyph-name="quote" d="M0 374.857h219.428l-146.287-292.57h219.428l146.287 292.57v438.857h-438.857zM585.143 813.713v-438.857h219.428l-146.287-292.57h219.428l146.287 292.57v438.857z" />
<glyph unicode="&#xe949;" glyph-name="email" d="M980.63 873.051h-937.051c-23.979 0-43.579-19.6-43.579-43.579v-762.944c0-23.979 19.6-43.579 43.579-43.579h934.757c23.979 0 43.579 17.306 45.664 41.285v765.446c0 23.77-19.6 43.37-43.37 43.37zM745.846 312.155c-19.6 15.221-45.664 10.843-60.885-6.464-15.221-19.6-10.843-45.664 6.464-60.885l167.643-136.992h-693.926l167.643 136.992c19.6 15.221 21.685 43.579 6.464 60.885-15.221 19.6-43.579 21.685-60.885 6.464l-193.499-158.052v585.917l400.134-327.78c24.604-17.723 45.664-4.379 52.128 2.085l399.925 324.027v-582.373l-191.205 156.175zM162.847 786.101h696.428l-348.214-284.827-348.214 284.827z" />
<glyph unicode="&#xe94a;" glyph-name="qr-code" d="M102.4 857.6h102.4v-102.4h-102.4v102.4zM716.8 960v-51.2h-51.2v-51.2h51.2v-204.8h51.2v-51.2h-51.2v-51.2h102.4v102.4h153.6v-51.2h51.2v358.4h-307.2zM972.8 704h-204.8v204.8h204.8v-204.8zM819.2 857.6h102.4v-102.4h-102.4v102.4zM102.4 140.8h102.4v-102.4h-102.4v102.4zM716.8 243.2h51.2v-51.2h-51.2v51.2zM460.8-12.8h51.2v-51.2h-51.2v51.2zM512 192h51.2v-51.2h-51.2v51.2zM512 89.6h51.2v-51.2h-51.2v51.2zM972.8 345.6h51.2v-51.2h-51.2v51.2zM0 345.6h51.2v-51.2h-51.2v51.2zM0 601.6h51.2v-51.2h-51.2v51.2zM563.2 908.8v-51.2h-102.4v-51.2h153.6v102.4zM972.8 550.4v-51.2h-102.4v-51.2h-153.6v51.2h-51.2v-51.2h-102.4v-51.2h153.6v-51.2h-153.6v51.2h-51.2v-51.2h-51.2v51.2h-51.2v-51.2h-51.2v-51.2h102.4v-51.2h51.2v51.2h102.4v-51.2h-51.2v-51.2h51.2v-102.4h51.2v-51.2h51.2v51.2h153.6v102.4h51.2v51.2h-51.2v102.4h-102.4v51.2h102.4v-51.2h51.2v51.2h51.2v51.2h51.2v102.4h-51.2zM819.2 294.4v-153.6h-153.6v153.6h153.6zM665.6 652.8h-51.2v-51.2h-51.2v-102.4h51.2v51.2h51.2v51.2h51.2v51.2zM563.2-12.8h102.4v-51.2h-102.4v51.2zM409.6 908.8h51.2v-51.2h-51.2v51.2zM819.2 550.4h51.2v-51.2h-51.2v51.2zM870.4 601.6h51.2v-51.2h-51.2v51.2zM204.8 345.6h51.2v-51.2h-51.2v51.2zM307.2-12.8v204.8h51.2v102.4h-51.2v-51.2h-153.6v51.2h-102.4v-51.2h-51.2v-307.2h409.6v51.2h-102.4zM256-12.8h-204.8v204.8h204.8v-204.8zM307.2 652.8h51.2v-51.2h-51.2v51.2zM358.4 960h-358.4v-307.2h51.2v-51.2h51.2v51.2h51.2v-51.2h51.2v51.2h102.4v102.4h51.2v51.2h-51.2v102.4h102.4v51.2h-51.2zM256 704h-204.8v204.8h204.8v-204.8zM614.4 806.4h51.2v-51.2h-51.2v51.2zM512 960h51.2v-51.2h-51.2v51.2zM614.4 652.8v51.2h-51.2v51.2h-51.2v-51.2h-102.4v51.2h-51.2v-102.4h51.2v-102.4h-153.6v51.2h-51.2v-51.2h-153.6v-51.2h102.4v-51.2h-153.6v-51.2h153.6v-51.2h51.2v51.2h51.2v-51.2h51.2v51.2h102.4v51.2h-51.2v51.2h102.4v-51.2h102.4v51.2h-51.2v51.2h-51.2v102.4h153.6zM307.2 448h-102.4v51.2h102.4v-51.2zM460.8 140.8v102.4h-51.2v-51.2h-51.2v-51.2h51.2v-51.2h-51.2v-51.2h102.4v51.2h51.2v51.2zM921.6 38.4v51.2h-51.2v-51.2h-153.6v-51.2h102.4v-51.2h51.2v51.2h102.4v-51.2h51.2v102.4zM972.8 243.2v-51.2h-51.2v-51.2h102.4v102.4z" />
<glyph unicode="&#xe94b;" d="M384 792c-66.274 0-120-53.726-120-120s53.726-120 120-120c66.274 0 120 53.726 120 120v0c-0.075 66.244-53.756 119.925-119.993 120h-0.007zM384 600c-39.765 0-72 32.235-72 72s32.235 72 72 72c39.765 0 72-32.235 72-72v0c-0.045-39.747-32.253-71.955-71.996-72h-0.004z" />
<glyph unicode="&#xe94c;" d="M944 824h-325.092c-10.904 16.959-22.773 31.711-36.024 45.092l0.022-0.022c-50.742 51.258-121.117 82.998-198.906 82.998s-148.164-31.739-198.883-82.975l-0.023-0.024c-13.229-13.36-25.098-28.111-35.355-44.001l-0.646-1.069h-69.092c-39.747-0.045-71.955-32.253-72-71.996v-672.004c0.045-39.747 32.253-71.955 71.996-72h432.004c13.255 0 24 10.745 24 24s-10.745 24-24 24v0h-432c-13.249 0.015-23.985 10.751-24 23.999v24.001h424c13.255 0 24 10.745 24 24s-10.745 24-24 24v0h-424v600c0.015 13.249 10.751 23.985 23.999 24h44.693c-11.879-30.39-18.763-65.574-18.763-102.366 0-80.161 32.679-152.689 85.442-204.988l0.021-0.020 153.016-153c10.14-10.118 24.136-16.375 39.594-16.375s29.454 6.257 39.595 16.376l153.015 152.999c52.783 52.32 85.462 124.848 85.462 205.009 0 36.792-6.884 71.977-19.435 104.336l0.672-1.969h300.691c13.249-0.015 23.985-10.751 24-23.999v-354.907c0-13.255 10.745-24 24-24s24 10.745 24 24v0 354.906c-0.045 39.747-32.253 71.955-71.996 72h-0.004zM542.672 502.563l-153.016-153c-1.447-1.448-3.447-2.344-5.656-2.344s-4.209 0.896-5.656 2.344l-153.017 153c-44.166 43-71.564 103.032-71.564 169.463 0 63.363 24.926 120.905 65.508 163.353l-0.085-0.089c42.045 42.47 100.358 68.768 164.812 68.768s122.768-26.298 164.794-68.749l0.019-0.019c40.497-42.36 65.424-99.901 65.424-163.264 0-66.431-27.398-126.463-71.512-169.412l-0.052-0.051z" />
<glyph unicode="&#xe94d;" d="M896 648c13.255 0 24 10.745 24 24s-10.745 24-24 24v0h-160c-13.255 0-24-10.745-24-24s10.745-24 24-24v0z" />
<glyph unicode="&#xe94e;" d="M696 576c0.001-13.255 10.745-23.999 24-24h176c13.255 0 24 10.745 24 24s-10.745 24-24 24v0h-176c-13.255-0.001-23.999-10.745-24-24v0z" />
<glyph unicode="&#xe94f;" d="M680 480c0.001-13.255 10.745-23.999 24-24h192c13.255 0 24 10.745 24 24s-10.745 24-24 24v0h-192c-13.255-0.001-23.999-10.745-24-24v0z" />
<glyph unicode="&#xe950;" d="M128 200h352c13.255 0 24 10.745 24 24s-10.745 24-24 24v0h-352c-13.255 0-24-10.745-24-24s10.745-24 24-24v0z" />
<glyph unicode="&#xe951;" d="M128 296h96c13.255 0 24 10.745 24 24s-10.745 24-24 24v0h-96c-13.255 0-24-10.745-24-24s10.745-24 24-24v0z" />
<glyph unicode="&#xe952;" d="M828 176c0-24.301-19.699-44-44-44s-44 19.699-44 44c0 24.301 19.699 44 44 44s44-19.699 44-44z" />
<glyph unicode="&#xe953;" d="M784 408c-128.13 0-232-103.87-232-232s103.87-232 232-232c128.13 0 232 103.87 232 232v0c-0.152 128.069-103.931 231.848-231.985 232h-0.015zM964 176c0 0 0-0.001 0-0.001 0-11.045-8.954-19.999-19.999-19.999-0.001 0-0.001 0-0.002 0h-78.672c-7.674-30.277-31.051-53.654-60.747-61.203l-0.581-0.125v-78.672c0-11.046-8.954-20-20-20s-20 8.954-20 20v0 78.672c-30.276 7.674-53.654 31.052-61.202 60.747l-0.125 0.581h-78.673c-11.046 0-20 8.954-20 20s8.954 20 20 20v0h78.673c7.674 30.276 31.051 53.653 60.747 61.202l0.581 0.125v78.673c0 11.046 8.954 20 20 20s20-8.954 20-20v0-78.673c30.276-7.674 53.654-31.051 61.203-60.746l0.125-0.581h78.672c0 0 0.001 0 0.001 0 11.045 0 19.999-8.954 19.999-19.999 0-0.001 0-0.001 0-0.002v0z" />
<glyph unicode="&#xe954;" glyph-name="pdf" d="M275.236 456.034h-92.862c-13.862 0-22.638-6.764-22.638-14.242v-231.412c-0.106-19.396 59.882-19.438 60.060 0v82.596h51.744c60.986 0 108.572 22.428 108.572 80.816v2.136c0 58.39-46.202 80.106-104.876 80.106zM320.050 370.234c0-27.77-18.48-40.942-48.512-40.942h-51.744v86.156h51.744c30.032 0 48.512-13.172 48.512-40.942zM525.172 456.034h-81.776c-15.708 0-26.334-6.764-26.334-14.242v-231.768c0-7.476 10.626-14.24 26.334-14.24h81.776c60.984 0 108.572 22.074 108.572 81.528v97.192c0 59.456-47.588 81.53-108.572 81.53zM573.682 277.314c0-27.77-18.018-40.942-48.51-40.942h-48.048v179.078h48.048c30.492 0 48.51-13.172 48.51-40.942zM872.588 456.034h-161.24c-13.398 0-26.334-4.984-26.334-14.596v-231.056c-0.106-19.396 59.882-19.438 60.060 0v97.548h70.688c25.594 0.358 23.768 36.438 0 36.314h-70.688v71.204h127.514c23.802-0.432 25.592 40.524 0 40.586zM934 588.39h-29.4v91.998c0 8.034-3.222 15.73-8.944 21.368l-253.302 249.612c-5.612 5.532-13.178 8.632-21.058 8.632h-471.296c-16.568 0-30-13.432-30-30v-341.61h-30c-49.626 0-90-40.374-90-90v-350.39c0-49.626 40.374-90 90-90h30v-92c0-16.568 13.432-30 30-30h724.6c16.568 0 30 13.432 30 30v92h29.4c49.626 0 90 40.374 90 90v350.39c0 49.626-40.374 90-90 90zM651.296 858.318l150.118-147.93h-120.118c-16.542 0-30 13.458-30 30zM180 900h411.296v-159.612c0-49.626 40.374-90 90-90h163.304v-61.998h-664.6zM844.6-4h-664.6v62h664.6zM964 148c0-16.542-13.458-30-30-30h-844c-16.542 0-30 13.458-30 30v350.39c0 16.542 13.458 30 30 30h844c16.542 0 30-13.458 30-30z" />
<glyph unicode="&#xe955;" glyph-name="download" d="M810.667 576h-170.667v256h-256v-256h-170.667l298.667-298.667zM213.333 192v-85.333h597.333v85.333z" />
<glyph unicode="&#xe956;" d="M944 840h-32c-13.255 0-24-10.745-24-24s10.745-24 24-24v0h32c13.249-0.015 23.985-10.751 24-23.999v-752.001c-0.015-13.249-10.751-23.985-23.999-24h-816.001c-39.765 0-72 32.235-72 72s32.235 72 72 72v0h8.809c4.079-36.083 34.37-63.882 71.179-64h192.012c39.747 0.045 71.955 32.253 72 71.996v192.004c-0.045 39.747-32.253 71.955-71.996 72h-152.004v48h152c39.747 0.045 71.955 32.253 72 71.996v96.004c-0.045 39.747-32.253 71.955-71.996 72h-152.004v96h248c13.255 0 24 10.745 24 24s-10.745 24-24 24v0h-248v40c-0.045 39.747-32.253 71.955-71.996 72h-48.004c-66.244-0.075-119.925-53.756-120-119.993v-768.007c0.075-66.244 53.756-119.925 119.993-120h816.007c39.747 0.045 71.955 32.253 72 71.996v752.004c-0.045 39.747-32.253 71.955-71.996 72h-0.004zM400 360c13.249-0.015 23.985-10.751 24-23.999v-192.001c-0.015-13.249-10.751-23.985-23.999-24h-192.001c-10.688 0.039-19.722 7.072-22.768 16.758l-0.046 0.17c35.531 4.637 62.701 34.664 62.814 71.060v152.012zM400 648c13.249-0.015 23.985-10.751 24-23.999v-96.001c-0.015-13.249-10.751-23.985-23.999-24h-152.001v144zM56 832c0.045 39.747 32.253 71.955 71.996 72h48.004c13.249-0.015 23.985-10.751 24-23.999v-672.001c-0.015-13.249-10.751-23.985-23.999-24h-48.001c-0.037 0-0.080 0-0.123 0-27.118 0-52.125-9.039-72.172-24.27l0.295 0.215z" />
<glyph unicode="&#xe957;" d="M520 400c0.045-39.747 32.253-71.955 71.996-72h224.004c39.747 0.045 71.955 32.253 72 71.996v64.004c-0.045 39.747-32.253 71.955-71.996 72h-32.004c-13.255 0-24-10.745-24-24s10.745-24 24-24v0h32c13.249-0.015 23.985-10.751 24-23.999v-64.001c-0.015-13.249-10.751-23.985-23.999-24h-224.001c-13.249 0.015-23.985 10.751-24 23.999v64.001c0.015 13.249 10.751 23.985 23.999 24h32.001c13.255 0 24 10.745 24 24s-10.745 24-24 24v0h-32c-39.747-0.045-71.955-32.253-72-71.996v-0.004z" />
<glyph unicode="&#xe958;" d="M816.047 280h-224.047c-39.747-0.045-71.955-32.253-72-71.996v-64.004c0.045-39.747 32.253-71.955 71.996-72h224.004c39.747 0.045 71.955 32.253 72 71.996v64.004c-0.045 39.708-32.191 71.892-71.88 72h-0.010zM840 208v-64c-0.015-13.249-10.751-23.985-23.999-24h-224.001c-13.249 0.015-23.985 10.751-24 23.999v64.001c0.015 13.249 10.751 23.985 23.999 24h224.001c13.249-0.015 23.985-10.751 24-23.999v-0.001z" />
<glyph unicode="&#xe959;" d="M899.969 621.312l-59.969 89.954v168.734c-0.045 39.747-32.253 71.955-71.996 72h-128.004c-39.747-0.045-71.955-32.253-72-71.996v-168.738l-59.968-89.954c-2.518-3.738-4.019-8.343-4.019-13.299 0-13.253 10.736-23.998 23.985-24.013h152.001v-104c0-13.255 10.745-24 24-24s24 10.745 24 24v0 104h152c13.25 0.018 23.985 10.763 23.985 24.016 0 4.954-1.5 9.558-4.071 13.382l0.054-0.086zM768 792h-128c-13.255 0-24 10.745-24 24s10.745 24 24 24v0h128c13.255 0 24-10.745 24-24s-10.745-24-24-24v0z" />
<glyph unicode="&#xe95a;" d="M775.508 502.93c-12.338 58.817-42.623 109.167-84.768 146.4l-0.287 0.248c-4.213 3.765-9.803 6.067-15.931 6.067-2.641 0-5.182-0.427-7.558-1.217l0.169 0.049c-46.328-15.59-99.68-24.586-155.133-24.586s-108.804 8.996-158.674 25.609l3.542-1.023c-2.202 0.735-4.737 1.159-7.371 1.159-6.132 0-11.728-2.297-15.973-6.078l0.024 0.021c-42.432-37.48-72.716-87.831-84.748-144.909l-0.307-1.74c-0.312-1.45-0.49-3.117-0.49-4.825 0-7.059 3.048-13.406 7.899-17.797l0.021-0.018c76.937-69.339 132.091-161.496 154.809-265.767l0.605-3.312c1.838-8.385 7.871-15.029 15.737-17.7l0.169-0.050c25.287-8.766 54.431-13.828 84.758-13.828s59.471 5.062 86.634 14.388l-1.876-0.56c8.036 2.721 14.068 9.365 15.877 17.591l0.029 0.159c23.324 107.583 78.478 199.74 154.967 268.681l0.447 0.397c4.872 4.409 7.92 10.756 7.92 17.815 0 1.708-0.178 3.375-0.518 4.982l0.028-0.157zM512 384c-35.346 0-64 28.654-64 64s28.654 64 64 64c35.346 0 64-28.654 64-64v0c0-35.346-28.654-64-64-64v0z" />
<glyph unicode="&#xe95b;" d="M512 952c-278.352 0-504-225.648-504-504s225.648-504 504-504c278.352 0 504 225.648 504 504v0c-0.325 278.22-225.779 503.675-503.968 504h-0.032zM968 448c0-0.092 0-0.201 0-0.311 0-75.387-18.414-146.473-50.989-209.006l1.189 2.508-83.207 48.038c23.34 46.365 37.007 101.048 37.007 158.923 0 190.327-147.803 346.132-334.89 358.898l-1.11 0.061v96.251c241.17-13.396 431.7-212.080 432-455.332v-0.029zM200 448c0 172.313 139.687 312 312 312s312-139.687 312-312c0-172.313-139.687-312-312-312v0c-172.232 0.2-311.8 139.767-312 311.98v0.020zM488 903.361v-96.251c-188.197-12.826-336-168.632-336-358.958 0-57.875 13.667-112.558 37.949-160.998l-0.942 2.075-83.207-48.038c-31.388 60.229-49.8 131.53-49.8 207.131 0 243.33 190.737 442.112 430.855 454.99l1.145 0.049zM512-8c-159.398 0.088-299.653 81.965-381.082 205.934l-1.064 1.726 83.183 48.023c65.466-96.852 174.878-159.683 298.964-159.683s233.497 62.831 298.154 158.414l0.809 1.269 83.183-48.023c-82.494-125.695-222.749-207.572-382.133-207.66h-0.013z" />
<glyph unicode="&#xe95c;" d="M427.082 356.667c65.531 37.879 108.918 107.62 108.918 187.495 0 119.204-96.634 215.838-215.838 215.838-0.057 0-0.114 0-0.17 0h-124.108c-0.115 0-0.251-0.001-0.386-0.001-38.506 0-73.354 15.662-98.522 40.963l-0.006 0.006c-4.343 4.33-10.336 7.007-16.954 7.007-13.249 0-23.993-10.73-24.015-23.974v-0.002c0-0.071 0-0.155 0-0.24 0-63.986 22.869-122.631 60.88-168.206l-0.341 0.421c-7.944-21.532-12.539-46.399-12.539-72.34 0-79.724 43.406-149.311 107.875-186.415l1.043-0.553c-120.398-45.038-204.619-158.979-204.918-292.63v-96.037c0.001-13.255 10.745-23.999 24-24h576c13.255 0.001 23.999 10.745 24 24v0 96c-0.3 133.688-84.521 247.629-202.763 291.959l-2.155 0.708zM110.188 732.578c24.791-12.969 54.153-20.579 85.291-20.579 0.142 0 0.284 0 0.426 0h124.095c84.217-0.151 153.895-62.204 165.97-143.078l0.113-0.922h-166.083c-100.999 0.132-185.773 69.441-209.492 163.083l-0.321 1.495zM152 544c0 0.011 0 0.024 0 0.036 0 11.994 1.251 23.695 3.631 34.981l-0.194-1.101c44.59-36.077 101.991-57.917 164.494-57.917 0.024 0 0.049 0 0.073 0h166.079c-12.104-81.877-81.891-144-166.187-144-92.726 0-167.896 75.17-167.896 167.896 0 0.037 0 0.073 0 0.11v-0.006zM56-8v72c0.046 78.889 34.792 149.654 89.801 197.864l0.302 0.259 135.061-270.123zM185.467 290.737c38.401 23.406 84.849 37.263 134.533 37.263s96.133-13.857 135.691-37.917l-1.157 0.654-134.533-269.065zM584-8h-225.164l135.061 270.123c55.31-48.469 90.057-119.234 90.103-198.115v-0.008z" />
<glyph unicode="&#xe95d;" d="M995.443 777.397l-153.352 22.297-68.578 138.953c-4.019 7.977-12.143 13.353-21.523 13.353s-17.505-5.376-21.46-13.215l-0.063-0.138-68.579-138.953-153.352-22.297c-11.678-1.763-20.528-11.728-20.528-23.761 0-6.729 2.767-12.812 7.226-17.172l110.966-108.16-26.195-152.72c-0.217-1.212-0.341-2.607-0.341-4.031 0-13.266 10.754-24.021 24.021-24.021 4.073 0 7.909 1.014 11.27 2.802l-0.13-0.063 137.164 72.109 137.164-72.109c3.23-1.724 7.064-2.736 11.135-2.736 13.268 0 24.024 10.756 24.024 24.024 0 1.421-0.123 2.814-0.36 4.168l0.021-0.144-26.195 152.72 110.961 108.156c4.464 4.364 7.232 10.447 7.232 17.177 0 12.033-8.85 21.999-20.396 23.744l-0.133 0.016z" />
<glyph unicode="&#xe95e;" d="M336.142 593.033c-177.178-0.023-320.8-143.659-320.8-320.84 0-177.195 143.645-320.84 320.84-320.84s320.84 143.645 320.84 320.84c0 0.014 0 0.028 0 0.042v-0.002c0 0.010 0 0.022 0 0.035 0 177.154-143.612 320.766-320.766 320.766-0.040 0-0.080 0-0.12 0h0.006zM519.742 325.193l-190-189.92c-10.744-10.727-25.577-17.36-41.96-17.36s-31.216 6.634-41.961 17.361l-108.639 108.639c-11.681 11.23-18.938 26.988-18.938 44.44 0 15.103 5.434 28.937 14.455 39.653l-0.077-0.093c10.921 12.11 26.666 19.688 44.181 19.688 16.39 0 31.23-6.637 41.98-17.369l-0.001 0.001 69.36-69.84 147.68 148.72c10.739 10.739 25.574 17.38 41.96 17.38 32.773 0 59.34-26.568 59.34-59.34 0-16.386-6.642-31.221-17.38-41.96v0z" />
<glyph unicode="&#xe95f;" d="M398.502 686.304v196.027c0 0.021 0 0.046 0 0.071 0 34.416-27.899 62.315-62.315 62.315s-62.315-27.899-62.315-62.315c0-0.025 0-0.050 0-0.074v0.004-196.027c18.728 2.946 40.325 4.629 62.315 4.629s43.587-1.683 64.67-4.928l-2.355 0.298z" />
<glyph unicode="&#xe960;" d="M811.742 747.73c-11.267 11.301-26.85 18.294-44.066 18.294s-32.8-6.992-44.065-18.292l-138.875-138.876c33.922-25.129 63.003-54.21 87.342-87.018l0.79-1.114 138.874 138.874c11.224 11.302 18.16 26.874 18.16 44.066s-6.937 32.764-18.164 44.070l0.004-0.004z" />
<glyph unicode="&#xe961;" d="M946.343 334.489h-196.026c2.946-18.728 4.629-40.325 4.629-62.315s-1.683-43.587-4.927-64.67l0.298 2.355h196.026c34.416 0 62.315 27.899 62.315 62.315s-27.899 62.315-62.315 62.315v0z" />
<glyph unicode="&#xe962;" glyph-name="place" d="M512 960c-216.15 0-392-175.85-392-392 0-69.188 18.28-137.21 52.862-196.71 8.062-13.872 17.074-27.39 26.79-40.18l295.316-395.11h34.062l295.318 395.108c9.714 12.792 18.726 26.308 26.79 40.18 34.582 59.502 52.862 127.524 52.862 196.712 0 216.15-175.85 392-392 392zM512 438c-71.682 0-130 58.318-130 130s58.318 130 130 130 130-58.318 130-130-58.318-130-130-130z" />
<glyph unicode="&#xe963;" d="M967.11 781.192h-105.651v73.142c-0.039 31.403-25.486 56.85-56.888 56.887h-747.682c-31.403-0.037-56.85-25.484-56.888-56.887v-520.113c0.039-31.403 25.486-56.85 56.888-56.887h89.396v-138.154c0.030-13.48 10.981-24.384 24.463-24.355 4.783 0.010 9.457 1.425 13.441 4.070l42.618 28.412h375.335l237.667-158.44c11.216-7.462 26.358-4.419 33.82 6.796 2.659 3.996 4.079 8.688 4.084 13.488v138.154h89.396c31.403 0.037 56.85 25.484 56.888 56.887v520.113c-0.037 31.403-25.486 56.85-56.888 56.887zM170.667 326.095h-113.779c-4.485 0.008-8.117 3.643-8.127 8.127v520.111c0.008 4.485 3.643 8.117 8.127 8.127h747.682c4.485-0.008 8.117-3.643 8.127-8.127v-520.113c-0.008-4.485-3.643-8.117-8.127-8.127h-390.095c-4.813-0.002-9.517-1.427-13.524-4.096l-205.904-137.264v116.981c-0.003 13.463-10.917 24.377-24.381 24.381zM975.237 204.192c-0.008-4.485-3.643-8.117-8.127-8.127h-113.779c-13.463-0.003-24.377-10.917-24.381-24.381v-116.981l-205.906 137.268c-4.005 2.669-8.71 4.094-13.524 4.096h-309.569l121.904 81.267h382.714c31.403 0.037 56.85 25.484 56.888 56.887v398.212h105.651c4.485-0.008 8.117-3.643 8.127-8.127z" />
<glyph unicode="&#xe964;" d="M577.015 764.947h162.54c13.465 0 24.381 10.916 24.381 24.381s-10.916 24.381-24.381 24.381h-162.54c-13.465 0-24.381-10.916-24.381-24.381s10.916-24.381 24.381-24.381z" />
<glyph unicode="&#xe965;" d="M577.015 569.9h162.54c13.465 0 24.381 10.916 24.381 24.381s-10.916 24.381-24.381 24.381h-162.54c-13.465 0-24.381-10.916-24.381-24.381s10.916-24.381 24.381-24.381z" />
<glyph unicode="&#xe966;" d="M577.015 374.853h162.54c13.465 0 24.381 10.916 24.381 24.381s-10.916 24.381-24.381 24.381h-162.54c-13.465 0-24.381-10.916-24.381-24.381s10.916-24.381 24.381-24.381z" />
<glyph unicode="&#xe967;" d="M487.619 821.838h-357.587c-13.463-0.003-24.377-10.917-24.381-24.381v-390.095c0.003-13.463 10.917-24.377 24.381-24.381h357.587c13.463 0.003 24.377 10.917 24.381 24.381v390.095c-0.003 13.463-10.917 24.377-24.381 24.381zM308.826 426.884c-12.563 0-22.746 10.185-22.746 22.746 0 12.563 10.185 22.746 22.746 22.746s22.746-10.185 22.746-22.746c0-12.563-10.185-22.746-22.746-22.746zM333.206 588.377v-50.985c0-13.465-10.916-24.381-24.381-24.381s-24.381 10.916-24.381 24.381v72.095c0.003 13.463 10.917 24.377 24.381 24.381 21.427-0.959 39.576 15.636 40.533 37.064 0.029 0.65 0.042 1.301 0.039 1.953-2.072 20.256-19.324 35.541-39.682 35.158-21.216 1.665-39.766-14.188-41.429-35.404-0.044-0.558-0.076-1.117-0.094-1.675 0-13.465-10.916-24.381-24.381-24.381s-24.381 10.916-24.381 24.381c0.996 48.394 41.019 86.825 89.413 85.857 0.603 0 1.191-0.017 1.794-0.017 45.86-0.174 83.909-35.515 87.461-81.239 1.729-40.755-25.354-77.145-64.893-87.188z" />
<glyph unicode="&#xe968;" glyph-name="minus" d="M768 490.667h-512c-23.467 0-42.667-19.2-42.667-42.667s19.2-42.667 42.667-42.667h512c23.467 0 42.667 19.2 42.667 42.667s-19.2 42.667-42.667 42.667z" />
<glyph unicode="&#xe969;" glyph-name="plus-sign" d="M768 405.333h-512c-25.6 0-42.667 17.067-42.667 42.667s17.067 42.667 42.667 42.667h512c25.6 0 42.667-17.067 42.667-42.667s-17.067-42.667-42.667-42.667zM512 149.333c-25.6 0-42.667 17.067-42.667 42.667v512c0 25.6 17.067 42.667 42.667 42.667s42.667-17.067 42.667-42.667v-512c0-25.6-17.067-42.667-42.667-42.667z" />
<glyph unicode="&#xe96a;" glyph-name="symbols" d="M997.639 779.803h-971.277c-14.577 0-26.361-11.803-26.361-26.361v-610.901c0-14.559 11.785-26.361 26.361-26.361h971.277c14.577 0 26.361 11.803 26.361 26.361v610.901c0 14.559-11.785 26.361-26.361 26.361zM79.284 579.263h109.29c14.74-0.562 26.615-5.258 30.713-21.013l23.769-114.312c-23.352 59.794-79.628 109.543-164.678 130.139l0.907 5.185zM211.526 318.55l-63.13 215.678c45.38-29.045 84.034-75.132 97.65-107.205l7.361-26.633 69.040 176.39h74.697l-111.012-258.176-74.606-0.054zM452.043 318.368h-70.491l44.075 258.683h70.527l-44.111-258.683zM574.713 314.488c-31.601 0.326-62.042 6.581-78.541 13.815l9.917 57.89 9.083-4.116c23.152-9.663 38.146-13.58 66.375-13.58 20.252 0 41.954 7.923 42.153 25.256 0.127 11.331-9.083 19.418-36.533 32.109-26.76 12.365-62.187 33.106-61.752 70.255 0.381 50.275 49.478 85.358 119.152 85.358 27.304 0 49.188-5.62 63.148-10.86l-9.518-56.077-6.364 2.992c-12.981 5.222-29.679 10.262-52.759 9.899-27.594 0-40.394-11.495-40.394-22.246-0.145-12.111 14.939-20.088 39.597-32.091 40.666-18.457 59.467-40.848 59.214-70.273-0.544-53.666-48.644-88.331-122.778-88.331zM880.208 318.259c0 0-6.436 29.734-8.576 38.763-10.262 0-82.203 0.109-90.289 0.109-2.738-6.98-14.812-38.871-14.812-38.871h-74.026l104.666 237.054c7.433 16.843 20.034 21.466 36.931 21.466h54.463l57.056-258.502-65.414-0.018zM843.821 484.714l-4.75 22.3c-3.59-9.736-9.772-25.382-9.373-24.693 0 0-22.282-57.419-28.084-72.304h58.543c-2.828 12.963-16.335 74.697-16.335 74.697z" />
<glyph unicode="&#xe96b;" glyph-name="tool" d="M573.534 560.009h-119.787c-7.651-14.486-12.727-25.437-14.16-28.156h145.296c-3.282 9.682-7.053 19.055-11.35 28.156zM393.029 490.262c-11.513 0-21.539-1.469-37.131-5.421l-4.079-23.189 2.593 0.671 4.46 1.124c6.672 1.777 16.698 2.846 25.618 2.846 14.468 0 20.052-2.538 20.052-9.337 0-1.886-0.381-3.3-1.124-6.69-4.823 0.508-9.283 0.798-12.619 0.798-34.52 0-54.572-14.667-54.572-39.687 0-16.644 11.513-28.12 28.229-28.12 14.105 0 24.893 3.971 32.671 12.437l-0.743-10.661h25.981l0.363 2.792 0.381 3.535 0.743 5.222 1.106 6.527 6.69 36.587c1.867 11.458 2.23 15.32 2.23 20.397 0 19.69-14.105 30.169-40.848 30.169zM377.455 405.086c-7.053 0-11.132 4.134-11.132 10.497 0 10.407 8.92 15.665 26.361 15.665 2.23 0 3.717-0.054 7.071-0.399-0.761-15.229-9.682-25.763-22.3-25.763zM295.397 511.601l-34.538-78.414-2.23 78.414h-48.644l-24.15-126.622h28.211l18.565 96.743 5.203-96.743h28.229l42.697 97.36-18.565-97.36h31.184l24.512 126.622zM862.423 394.461c-0.018 0.689-0.381 1.396-0.743 1.777-0.743 0.363-1.487 0.399-1.849 0.399h-2.973v-7.107h1.487v2.774h1.106l1.124-2.774h1.849l-1.106 3.082c0.743 0.308 1.106 1.070 1.106 1.849zM860.193 393.663c-0.363-0.145-0.743-0.145-0.743-0.145h-1.124v1.849h0.78c0.363 0 1.106 0 1.106-0.163 0.381-0.145 0.381-0.435 0.381-0.707 0-0.308-0.036-0.671-0.399-0.834zM927.619 303.918c-0.036 0.707-0.381 1.414-0.761 1.777-0.743 0.363-1.487 0.399-1.867 0.399h-2.955v-7.107h1.487v2.792h1.106l1.124-2.792h1.867l-1.124 3.1c0.743 0.272 1.124 1.033 1.124 1.831zM925.371 303.121c-0.381-0.145-0.743-0.145-0.743-0.145h-1.124v1.831h0.743c0.381 0 1.124 0 1.124-0.145 0.381-0.145 0.381-0.453 0.381-0.707 0-0.326 0-0.653-0.381-0.834zM997.639 779.803h-971.277c-14.577 0-26.361-11.803-26.361-26.361v-610.901c0-14.559 11.785-26.361 26.361-26.361h971.277c14.577 0 26.361 11.803 26.361 26.361v610.901c0 14.559-11.785 26.361-26.361 26.361zM932.061 297.917c-0.761-1.378-1.795-2.429-3.137-3.173s-2.756-1.124-4.206-1.124c-1.487 0-2.901 0.381-4.242 1.124-1.324 0.743-2.375 1.795-3.155 3.173-0.743 1.324-1.124 2.738-1.124 4.206s0.381 2.865 1.142 4.242c0.743 1.378 1.831 2.411 3.173 3.155 1.36 0.707 2.738 1.088 4.188 1.088 1.432 0 2.81-0.381 4.152-1.088 1.36-0.743 2.429-1.777 3.173-3.155 0.761-1.378 1.124-2.792 1.124-4.242s-0.326-2.919-1.088-4.206zM951.062 447.982c0.036-145.133-117.557-262.835-262.708-262.871-67.88-0.018-129.777 25.709-176.408 67.971-46.631-42.189-108.401-67.898-176.172-67.898-145.061 0-262.799 117.72-262.799 262.799 0 144.499 116.814 261.874 261.113 262.817 0.562 0 1.124 0 1.686 0 67.771 0 129.559-25.709 176.19-67.898 46.613 42.207 108.437 67.934 176.263 67.952 145.151 0.054 262.835-117.593 262.871-262.744-0.036-0.036-0.036-0.054-0.036-0.127zM537.981 615.76h-49.931c-6.708-9.065-13.018-18.71-18.729-28.138h89.074c-6.182 9.827-13.018 19.218-20.415 28.138zM593.206 465.949c6.327 0 14.486-0.544 22.663-1.505l4.46 23.805c-8.177 1.124-20.433 2.031-27.866 2.031-34.883 0-47.175-15.846-47.157-34.792 0-12.981 7.433-21.956 24.131-28.7 12.601-5.131 14.486-6.654 14.486-11.368 0-6.382-5.548-9.283-17.804-9.283-9.682 0-18.203 1.269-28.247 4.061l-4.442-23.751 7.053-1.287c1.849-0.363 4.823-0.671 8.539-0.925 7.415-0.544 12.963-0.852 17.061-0.852 33.432 0 48.662 10.86 48.662 34.339 0 14.142-6.309 22.391-22.282 28.664-12.999 5.203-14.486 6.382-14.486 11.205 0 5.53 5.185 8.358 15.229 8.358zM755.907 488.195c-1.505 0.363-2.629 0.562-2.629 0.616-1.106 0.163-2.23 0.254-3.354 0.254-10.044 0-17.459-4.569-27.105-16.734l2.973 15.628h-28.229l-18.946-102.98h31.202c11.15 62.967 15.955 74.026 30.803 74.026 1.124 0 2.23-0.091 3.717-0.254l3.717-0.761 11.186 29.081c-2.593 0.997-2.973 0.997-3.336 1.124zM662.264 462.921h15.973l4.46 25.056h-15.955l4.46 23.642h-30.822l-14.486-78.613-1.487-8.141-1.867-10.135c-0.381-3.263-0.743-6.346-0.743-9.228 0-14.613 8.539-22.627 24.512-22.627 7.053 0 13.743 1.015 22.282 3.354l4.079 22.844c-2.194-0.671-4.805-0.997-8.159-0.997-7.415 0-10.788 2.284-10.788 7.615 0 0.943 0 2.375 0.381 4.261l8.159 42.969zM859.449 401.079c-4.46 0-8.177-3.608-8.177-8.014 0-4.46 3.717-8.068 8.177-8.068s8.177 3.608 8.177 8.068c0 4.388-3.717 8.014-8.177 8.014zM859.449 386.919c-3.336 0-6.309 2.738-6.309 6.146 0 3.372 2.973 6.092 6.309 6.092 3.372 0 5.947-2.72 5.947-6.092 0-3.408-2.575-6.146-5.947-6.146zM807.47 490.896c-37.131 0-61.262-24.748-61.262-61.208 0-26.126 14.087-47.483 49.405-47.483 31.909 0 55.678 15.211 60.519 49.441 0.743 5.983 0.743 6.4 0.743 12.782 0 26.144-17.079 46.468-49.405 46.468zM822.699 432.535c-2.593-16.045-17.061-25.237-23.751-25.237-11.15-0.218-17.822 9.192-17.822 23.171 0 16.535 9.645 35.3 25.618 35.3 12.619 0 17.061-10.207 17.061-20.941 0-4.46-0.363-8.521-1.106-12.292zM531.889 427.676c2.629 10.443 3.753 17.84 3.753 25.455 0 22.826-16.354 37.385-41.954 37.385-31.202 0-54.21-26.017-54.21-61.317-0.018-30.368 18.185-46.16 53.086-46.16 10.769 0 21.158 1.36 31.565 4.152l5.185 25.781c-11.132-4.533-21.158-6.545-32.308-6.545-17.822 0-27.105 6.074-27.105 18.003 0 0.961 0 1.668 0.381 3.245h61.607zM493.308 466.946c9.283 0 14.486-4.877 14.486-13.235 0-1.378 0-3.082 0-5.294l-34.538 0.036c2.973 11.966 10.044 18.493 20.052 18.493zM449.958 337.006c4.551-9.754 9.863-19.055 15.52-28.138h93.244c5.657 9.047 10.769 18.42 15.302 28.138h-124.066zM485.040 281.872c8.322-10.207 17.133-19.943 26.869-28.718 0.218 0.199 0.453 0.363 0.671 0.58h0.036c9.573 8.721 18.511 18.112 26.688 28.138h-54.264z" />
<glyph unicode="&#xe96c;" glyph-name="money" d="M219.758 509.262c-4.152 2.72-10.334 4.097-18.457 4.097l-6.944-0.036c-4.551 0.036-9.21-3.626-10.099-8.050l-6.4-27.558c-0.997-4.46 1.849-8.104 6.454-8.104h5.185c11.513 0 20.433 2.339 26.833 7.053 6.4 4.678 9.682 11.331 9.537 19.943 0.036 5.693-2.012 9.954-6.11 12.655zM333.072 445.752c-1.251-0.036-10.842-1.124-15.701-1.722-5.439-0.78-10.153-1.867-13.978-3.155l-8.993-6.128c-2.103-2.647-3.1-6.019-3.1-10.352l4.097-7.941c2.774-1.559 6.871-2.321 12.093-2.321 3.445 0 7.18 0.834 11.096 2.429l8.34 4.297 3.3 4.388c1.305 5.113 4.007 16.48 4.315 17.895l-1.469 2.611zM997.639 779.803h-971.277c-14.577 0-26.361-11.803-26.361-26.361v-610.883c0-14.559 11.785-26.38 26.361-26.38h971.277c14.577 0 26.361 11.803 26.361 26.361v610.901c0 14.559-11.785 26.361-26.361 26.361zM244.469 457.881c-14.432-10.624-34.52-15.918-60.483-15.955h-6.056c-4.659 0-9.21-3.662-10.171-8.050l-7.288-31.51c-1.033-4.496-5.584-8.086-10.189-8.086h-21.212c-4.605 0-7.488 3.699-6.4 8.086l29.824 129.867c1.088 4.46 5.602 8.032 10.207 8.104l44.31 0.018c9.573-0.091 17.858-0.671 25.038-1.976 7.071-1.342 13.235-3.59 18.457-6.781 5.004-3.155 9.047-7.379 11.585-12.492 2.828-5.113 4.079-11.513 4.079-19.127 0-17.405-7.161-31.474-21.702-42.099zM376.131 474.452l-0.798-5.457-15.483-66.937c-0.907-4.025-4.895-7.452-9.12-7.941l-0.29-0.109h-19.726l-0.073 0.073c-4.043 0.381-6.545 3.807-5.675 7.941v0.036l0.036 0.127 0.798 3.408-0.109 0.127-7.995-5.276-8.703-4.859-10.262-3.517c-3.155-0.761-7.597-1.215-13.326-1.215-9.047 0-16.625 2.484-22.355 7.615-5.693 5.24-8.63 11.93-8.63 20.125 0 8.703 2.012 16.063 6.056 22.192 4.188 6.092 10.171 10.842 18.257 14.395 7.524 3.427 16.571 5.965 26.905 7.397 10.552 1.523 19.254 2.629 31.311 3.39l3.046 1.886 0.381 2.992c0 4.605-2.139 7.778-6.4 9.645-4.315 1.813-10.806 2.72-19.291 2.72-5.765 0.073-13.018-1.106-19.889-2.665-7.198-1.632-9.174-2.701-12.691-3.753-1.632-0.562-5.566-0.834-4.097 5.983l2.593 10.679c0 0 1.269 8.068 9.337 9.827 3.898 0.87 4.514 1.033 10.878 2.012 8.612 1.324 17.133 1.994 25.673 1.994 17.278 0 29.933-2.248 37.929-6.763 8.032-4.496 12.129-11.531 12.093-20.977l-0.381-5.095zM410.235 342.572l-21.974-0.036c-4.569 0-6.074 3.626-3.282 8.086l18.801 32.78c0 0 1.505 1.867 0.163 12.564-2.901 19.327-17.333 101.493-17.333 101.493-1.052 4.442 1.777 8.086 6.346 8.086l19.019 0.036c5.82 0 10.497-3.825 11.549-8.322l9.464-56.984 3.517-0.036c2.955 5.24 33.342 57.382 33.342 57.382 2.901 4.388 8.775 8.104 13.344 8.104 0 0 20.433-0.054 25.455 0 7.542 0.109-0.58-12.111-0.58-12.111l-84.56-142.994c-2.72-4.46-8.739-8.050-13.271-8.050zM629.92 457.319c-14.486-10.57-34.665-15.918-60.628-15.918h-6.056c-4.569 0.073-9.138-3.644-10.189-8.032l-7.18-31.565c-1.052-4.406-5.693-8.032-10.189-7.977l-21.267-0.054c-4.514-0.018-7.488 3.644-6.4 8.050l29.842 129.94c1.088 4.406 5.548 7.995 10.153 8.068l44.365 0.036c9.518-0.036 17.895-0.707 24.929-1.958 7.161-1.305 13.326-3.554 18.475-6.763 5.058-3.245 9.029-7.397 11.676-12.546 2.72-5.076 4.043-11.495 4.079-19.109 0-17.387-7.27-31.42-21.611-42.171zM761.509 474.361l-0.78-5.493-15.52-66.883c-0.87-4.043-4.877-7.47-9.047-7.977l-0.29-0.109h-3.046c-4.388 0-13.634 0-16.299 0h-0.381l-0.036 0.109c-4.116 0.381-6.654 3.789-5.657 7.941l-0.036 0.054 0.091 0.073 0.707 3.408-0.127 0.163-7.941-5.348-8.757-4.841-10.244-3.463c-3.155-0.816-7.615-1.16-13.29-1.251-9.065 0-16.571 2.575-22.337 7.669-5.729 5.185-8.684 11.912-8.684 20.143 0 8.648 2.012 16.045 6.074 22.137 4.152 6.092 10.225 10.824 18.239 14.414 7.578 3.445 16.68 5.947 26.96 7.397 10.479 1.523 19.182 2.629 31.329 3.372l3.046 1.922 0.326 2.992c0 4.569-2.103 7.778-6.418 9.627-4.315 1.831-10.806 2.738-19.254 2.738-5.802 0.036-13.072-1.124-19.925-2.665-7.161-1.668-9.101-2.701-12.601-3.753-1.777-0.526-5.602-0.834-4.152 5.983l2.593 10.661c0 0 1.215 8.086 9.319 9.827 3.934 0.852 4.569 1.052 10.914 1.976 8.558 1.378 17.133 2.049 25.673 2.049 17.206 0 29.842-2.284 37.91-6.799 8.086-4.496 12.129-11.495 12.129-20.941l-0.49-5.131zM829.498 530.692l-28.428-128.743-0.997-1.523c-1.686-3.626-5.276-6.563-9.174-6.563h-19.726l-0.363 0.453c-3.753 0.58-6.201 3.608-5.312 7.56l-0.036 0.091 0.852 3.717 26.579 120.784 0.943 4.206 1.070 1.65c1.722 3.554 5.24 6.436 9.138 6.436h18.982c4.623 0 7.397-3.608 6.418-8.032l0.054-0.036zM867.173 544.616h-7.107v-9.446l0.054-2.538 0.49-1.704 1.124-1.088 2.176-0.344 1.777 0.254 1.324 0.399h0.163v-3.1l-2.121-0.417-2.012-0.163-4.823 1.722-1.65 5.439v10.987h-2.393v2.937h2.393v5.892h3.499v-5.892h7.107v-2.937zM901.53 540.283v-13.362h-3.427v11.785l-0.218 2.52-0.453 1.994-1.197 1.178-2.303 0.417-2.883-0.743-2.955-1.867 0.054-1.015 0.036-1.088v-13.217h-3.445v11.785l-0.145 2.556-0.49 1.976-1.16 1.178-2.339 0.417-2.846-0.707-2.883-1.795v-15.411h-3.408v20.65h3.408v-2.303l3.3 2.103 3.408 0.761 3.59-0.852 2.212-2.466 3.807 2.556 3.717 0.761 5.022-2.049 1.632-5.765h-0.036zM718.468 445.643c-1.251 0.018-10.806-1.106-15.592-1.722-5.493-0.78-10.189-1.849-13.978-3.155-3.88-1.523-7.035-3.572-9.083-6.128-2.031-2.647-3.046-6.019-3.046-10.371l4.152-7.923c2.647-1.577 6.69-2.339 12.075-2.339 3.39 0 7.125 0.834 11.023 2.411l8.286 4.297 3.408 4.388c1.269 5.167 4.025 16.499 4.242 17.913l-1.487 2.629zM605.045 508.773c-4.188 2.738-10.28 4.079-18.42 4.116l-6.908-0.036c-4.569 0.036-9.21-3.662-10.153-8.068l-6.418-27.54c-1.033-4.424 1.922-8.122 6.509-8.086h5.276c11.476 0 20.378 2.357 26.797 6.962 6.346 4.732 9.573 11.331 9.537 20.016-0.109 5.657-2.085 9.917-6.219 12.637z" />
<glyph unicode="&#xe96d;" glyph-name="symbol" d="M997.639 779.803h-971.277c-14.577 0-26.361-11.803-26.361-26.361v-610.883c0-14.559 11.785-26.38 26.361-26.38h971.277c14.577 0 26.361 11.803 26.361 26.361v610.901c0 14.559-11.785 26.361-26.361 26.361zM251.903 476.592l-3.046 6.908v-0.381c0-8.866-7.198-16.063-16.063-16.063h-47.302c-6.527 0-12.383 3.934-14.867 9.954l-4.841 11.748h-26.942l-4.913-11.821c-2.466-5.983-8.34-9.899-14.794-9.899h-25.274c-5.403 0-10.443 2.72-13.416 7.216-2.955 4.533-3.481 10.225-1.342 15.175l41.627 97.305c2.52 5.892 8.34 9.736 14.776 9.736h34.52c6.436 0 12.22-3.825 14.776-9.718l8.721-20.342v13.978c0 8.866 7.18 16.063 16.063 16.063h37.983c6.237 0 11.948-3.662 14.595-9.337l15.211-33.033 13.815 32.562c2.502 5.947 8.34 9.808 14.758 9.808h38.763c3.263 0 6.11-1.215 8.666-2.883 2.538 1.668 5.385 2.883 8.666 2.883h77.67c3.010 0 5.675-1.052 8.050-2.484 2.411 1.432 5.058 2.484 8.068 2.484h53.484c13.833 0 25.274-0.49 36.206-6.799 1.106-0.671 1.904-1.523 2.901-2.248 2.611 5.294 7.977 9.047 14.305 9.047h23.733c8.032 0 14.414-5.983 15.592-13.652 10.407 9.011 24.585 13.652 43.658 13.652h22.5c3.572 0 6.926-1.178 9.591-3.191 2.701 2.031 6.056 3.191 9.609 3.191h34.828c6.418 0 12.202-3.844 14.758-9.736l8.539-19.98v13.652c0 8.866 7.198 16.063 16.082 16.063h35.408c5.639 0 10.842-2.937 13.743-7.76l11.059-18.33v10.044c0 8.866 7.216 16.063 16.1 16.063h23.787c8.884 0 16.063-7.198 16.063-16.063v-97.305c0-8.866-7.216-16.063-16.063-16.063h-32.925c-5.675 0-10.878 2.937-13.797 7.76l-14.269 23.66v-15.356c0-8.866-7.216-16.063-16.063-16.063h-47.338c-6.473 0-12.292 3.898-14.831 9.881l-4.913 11.821h-26.797l-4.75-11.658c-2.411-6.074-8.322-10.062-14.831-10.062h-27.232c-10.352 0-28.882 1.867-42.099 12.945-1.505-7.325-7.669-12.945-15.447-12.945h-23.751c-2.629 0-5.040 0.798-7.27 1.94-2.194-1.142-4.569-1.94-7.216-1.94h-23.461c-8.829 0-16.009 7.125-16.082 15.937l-0.091 12.274 0.036 2.139c0 1.305 0.036 3.263-0.073 4.913-1.070 0.073-2.502 0.127-4.514 0.127h-8.866v-19.327c0-8.866-7.198-16.063-16.063-16.063h-23.279c-3.010 0-5.639 1.052-8.068 2.484-2.375-1.432-5.040-2.484-8.050-2.484h-77.67c-3.282 0-6.128 1.233-8.666 2.883-2.556-1.65-5.403-2.883-8.666-2.883h-23.841c-8.884 0-16.063 7.18-16.063 16.045v0.399l-3.082-6.89c-2.575-5.82-8.304-9.573-14.686-9.573h-20.433c-6.346 0-12.111 3.771-14.667 9.591zM893.661 299.567h-45.29c-6.636 0-12.31 4.043-14.776 9.772-8.829-6.255-20.505-9.772-34.955-9.772h-45.29c-2.556 0-4.841 0.707-6.98 1.741-2.121-1.033-4.424-1.741-6.962-1.741h-77.598c-2.593 0-4.968 0.707-7.107 1.813-2.158-1.070-4.496-1.813-7.071-1.813h-23.334c-8.902 0-16.082 7.198-16.082 16.063v14.142c0.036 1.378 0.036 3.481-0.073 5.203-1.070 0.073-2.575 0.145-4.714 0.145h-8.775v-19.49c0-8.884-7.198-16.063-16.063-16.063h-23.37c-8.902 0-16.082 7.198-16.082 16.063v24.73c-8.249-4.913-19.635-8.141-35.336-8.141h-12.927v-16.589c0-8.884-7.198-16.063-16.082-16.063h-45.199c-4.587 0-8.975 1.958-12.020 5.385l-16.843 18.964-17.75-19.218c-3.046-3.282-7.307-5.167-11.785-5.167h-92.12c-8.884 0-16.063 7.216-16.063 16.082v97.305c0 8.902 7.198 16.082 16.063 16.082h93.516c4.587 0 8.92-1.922 11.948-5.33l16.897-18.801 17.605 19.001c3.046 3.282 7.307 5.131 11.785 5.131h74.298c16.281 0 27.739-3.608 35.88-8.938 2.629 5.258 7.923 8.938 14.214 8.938h53.702c12.365 0 24.331-0.471 35.554-6.473 1.215-0.707 1.994-1.632 3.118-2.393 2.647 5.203 7.887 8.866 14.16 8.866h77.598c6.019 0 11.096-3.463 13.852-8.376 7.651 5.185 17.804 8.376 30.604 8.376h46.595c7.016 0 12.782-4.514 15.012-10.733 7.977 6.473 18.874 10.733 33.396 10.733h46.631c8.866 0 16.045-7.198 16.045-16.082v-20.705c0-5.675-2.901-10.661-7.343-13.525 0.127-0.145 0.308-0.308 0.471-0.471 7.977-8.195 11.603-18.312 11.603-31.909 0-29.262-19.635-46.776-52.56-46.74zM532.814 528.245c6.056 2.393 16.39 10.425 16.39 25.926 0 10.86-4.424 17.206-11.748 21.557-7.542 4.351-16.299 4.659-28.175 4.659h-53.484v-97.305h23.279v35.372h24.929c8.376 0 13.561-0.743 16.952-4.152 4.224-4.678 3.662-13.090 3.662-18.946l0.109-12.274h23.461v19.127c0 8.684-0.562 12.999-3.862 17.84-2.067 2.846-6.418 6.255-11.513 8.195zM518.817 540.501c-3.227-1.94-6.998-1.994-11.513-1.994h-28.265l0.018 21.593h28.646c4.025 0 8.267-0.199 11.023-1.759 3.010-1.414 4.877-4.424 4.877-8.594 0-4.242-1.795-7.669-4.786-9.246zM562.765 580.369h23.733v-97.305h-23.733v97.305zM837.929 580.369v-67.771l-40.902 67.771h-35.408v-92.029l-39.379 92.029h-34.828l-32.852-76.51h-10.425c-6.074 0-12.637 1.16-16.208 5.022-4.369 4.895-6.4 12.419-6.4 22.826 0 10.225 2.701 17.949 6.672 22.046 4.605 4.496 9.373 5.765 17.913 5.765h22.028v20.85h-22.5c-16.027 0-27.83-3.572-35.318-11.331-9.972-10.425-12.528-23.624-12.528-38.056 0-17.677 4.279-28.882 12.474-37.149 8.086-8.249 22.391-10.751 33.722-10.769h27.232l8.739 21.702h48.299l9.065-21.702h47.338v73.029l44.129-73.029h32.925v97.305h-23.787zM688.281 525.072l15.973 38.781 16.118-38.781h-32.091zM646.164 543.474c-5.475 0.018-6.037-0.562-6.708-1.197-0.218-0.308-1.849-3.807-1.849-10.552 0-6.672 1.070-9.881 1.849-11.331 0.816-0.218 2.321-0.471 4.569-0.471l10.080 23.551h-7.941zM739.39 392.811v20.125h-77.598v-97.324h77.598v20.179l-54.463 0.127v19.327h53.122v19.871h-53.122v17.695zM505.129 412.9h-74.298l-29.589-31.873-28.646 31.873h-93.516v-97.305h92.12l29.77 32.218 28.646-32.218h45.199v32.635h29.008c20.324 0 40.485 5.584 40.485 32.616 0 26.942-20.723 32.091-39.18 32.054zM359.433 335.846h-57.147v19.363h51.037v19.871h-51.037v17.695h58.289l25.437-28.338-26.579-28.592zM451.644 324.442l-35.717 39.669 35.717 38.364v-78.033zM504.839 368.027h-30.024v24.784h30.314c8.412 0 14.214-3.427 14.214-11.948 0-8.431-5.548-12.873-14.504-12.836zM632.403 360.848c6.092 2.429 16.48 10.334 16.517 25.908 0 11.096-4.623 17.188-11.93 21.611-7.687 4.079-16.245 4.569-28.011 4.569h-53.684v-97.305h23.352v35.535h24.839c8.485 0 13.652-0.834 17.061-4.315 4.315-4.533 3.753-13.199 3.753-19.055v-12.165h23.334v19.291c-0.073 8.576-0.544 12.999-3.862 17.75-1.958 2.81-6.219 6.291-11.368 8.177zM618.389 372.941c-3.118-1.849-6.98-2.012-11.513-2.012h-28.265v21.865h28.646c4.097 0 8.267-0.091 11.096-1.759 3.010-1.577 4.805-4.605 4.805-8.757s-1.795-7.542-4.768-9.337zM828.265 366.994c-5.348 5.294-14.015 7.47-26.633 7.76l-12.492 0.363c-3.971 0-6.581 0.254-9.065 1.106-2.919 1.106-5.076 3.572-5.076 7.252 0 3.082 0.943 5.421 3.517 7.016 2.321 1.577 5.058 1.759 9.319 1.759h42.642v20.705h-46.595c-24.403 0-33.251-14.831-33.251-28.972 0-30.767 27.25-29.389 48.97-30.096 4.079 0 6.509-0.671 8.286-2.158 1.632-1.378 2.828-3.59 2.828-6.436 0-2.647-1.124-4.859-2.72-6.346-1.958-1.849-5.095-2.411-9.482-2.411h-45.108v-20.868h45.29c23.442 0 36.551 9.772 36.551 30.713 0 9.99-2.448 15.937-6.98 20.614zM305.931 580.406l-27.939-66.012-30.441 66.012h-37.965v-92.138l-39.578 92.138h-34.52l-41.645-97.305h25.256l9.029 21.702h48.408l8.938-21.702h47.32v76.274l33.777-76.256 20.469-0.018 33.722 76.202 0.091-76.202h23.841v97.305h-38.763zM136.412 525.072l15.81 38.781 15.9-38.781h-31.71zM439.66 560.136v20.27h-77.67v-97.324h77.67v20.125h-54.427v19.454h53.14v19.925h-53.14v17.55zM923.268 366.994c-5.312 5.294-13.997 7.47-26.615 7.76l-12.51 0.363c-3.934 0-6.563 0.254-9.065 1.106-2.883 1.106-5.058 3.572-5.058 7.252 0 3.082 0.943 5.421 3.499 7.016 2.339 1.577 5.095 1.759 9.337 1.759h42.661v20.705h-46.631c-24.367 0-33.251-14.831-33.251-28.972 0-30.767 27.268-29.389 49.006-30.096 4.061 0 6.473-0.671 8.286-2.158 1.595-1.378 2.81-3.59 2.81-6.436 0-2.647-1.142-4.859-2.701-6.346-1.976-1.849-5.113-2.411-9.5-2.411h-45.090v-20.868h45.29c23.442 0 36.514 9.772 36.514 30.713 0 9.99-2.411 15.937-6.98 20.614z" />
<glyph unicode="&#xe96e;" glyph-name="symbols-1" d="M536.331 605.099h-46.758c-6.291-8.503-12.202-17.532-17.532-26.361h83.418c-5.802 9.21-12.184 18.003-19.127 26.361zM258.484 486.491c20.233 12.655 46.649 8.286 66.321-0.073 3.191 12.51 4.406 18.33 6.744 28.628-31.474 8.086-65.487 10.407-95.275-3.010-32.054-15.447-47.792-49.115-43.005-82.022 1.396-20.505 18.547-39.488 39.633-46.812 23.624-7.85 46.033-5.657 69.657 0.925 2.448 9.065 4.569 18.982 7.361 31.656-19.69-10.099-37.403-12.564-55.914-5.747-10.715 4.279-18.293 14.16-19.708 24.295-1.396 20.995 5.058 39.977 24.186 52.161zM348.519 490.552l-23.823-111.9h40.068l23.823 111.9zM901.095 308.687c-0.49 0.78-0.907 1.378-1.287 1.704-0.199 0.127-0.399 0.29-0.743 0.417 0.743 0.073 1.378 0.344 1.813 0.78 0.417 0.508 0.671 1.033 0.671 1.668 0 0.417-0.127 0.834-0.399 1.215-0.272 0.435-0.635 0.671-1.088 0.834-0.435 0.181-1.16 0.254-2.176 0.254h-2.937v-8.576h1.378v3.626h0.816c0.526 0 0.87-0.091 1.124-0.29 0.344-0.254 0.852-0.925 1.432-1.994l0.761-1.342h1.704l-1.070 1.704zM898.012 311.769h-1.704v2.629h1.595c0.671 0 1.124-0.073 1.378-0.163 0.218-0.073 0.417-0.218 0.562-0.435 0.145-0.199 0.218-0.399 0.218-0.671 0-0.417-0.091-0.707-0.417-0.961-0.29-0.236-0.834-0.363-1.632-0.399zM486.744 292.388c7.796-9.5 16.045-18.638 25.165-26.887 0.218 0.181 0.435 0.326 0.635 0.526l0.036 0.018c8.938 8.141 17.296 16.988 24.984 26.343h-50.819zM569.618 552.866h-112.172c-7.161-13.543-11.93-23.805-13.253-26.343h136.050c-3.046 9.029-6.618 17.822-10.624 26.343zM844.836 371.853c-0.526 0.798-0.925 1.342-1.305 1.704-0.199 0.163-0.399 0.326-0.725 0.453 0.743 0.054 1.36 0.326 1.777 0.78 0.453 0.471 0.671 1.033 0.671 1.632 0 0.435-0.109 0.87-0.381 1.251-0.29 0.417-0.653 0.653-1.088 0.834-0.435 0.163-1.178 0.254-2.176 0.254h-2.937v-8.594h1.378v3.644h0.816c0.508 0 0.852-0.127 1.124-0.308 0.363-0.254 0.852-0.907 1.432-1.976l0.743-1.342h1.722l-1.052 1.668zM841.718 374.971h-1.686v2.593h1.577c0.671 0 1.124-0.073 1.378-0.145 0.236-0.091 0.417-0.254 0.58-0.453 0.145-0.199 0.218-0.417 0.218-0.671 0-0.435-0.109-0.707-0.435-0.961-0.254-0.218-0.816-0.308-1.632-0.363zM849.042 378.561c-0.707 1.287-1.704 2.284-2.973 2.955s-2.575 1.033-3.916 1.033c-1.324 0-2.647-0.363-3.916-1.033-1.269-0.689-2.266-1.686-2.973-2.955-0.725-1.269-1.106-2.611-1.106-3.989 0-1.36 0.381-2.72 1.070-3.971 0.725-1.251 1.704-2.23 2.955-2.937 1.269-0.689 2.593-1.070 3.971-1.070s2.72 0.381 3.952 1.070c1.269 0.707 2.248 1.686 2.955 2.937 0.689 1.287 1.052 2.611 1.052 3.971s-0.363 2.72-1.070 3.989zM847.9 371.236c-0.598-1.052-1.396-1.867-2.484-2.448-1.052-0.562-2.121-0.888-3.3-0.888s-2.248 0.326-3.336 0.888c-1.052 0.58-1.867 1.396-2.448 2.448-0.562 1.088-0.888 2.158-0.888 3.336s0.326 2.248 0.925 3.318c0.598 1.088 1.414 1.904 2.484 2.502 1.070 0.544 2.121 0.852 3.263 0.852s2.194-0.308 3.263-0.852c1.088-0.616 1.922-1.414 2.484-2.502 0.598-1.070 0.907-2.194 0.907-3.318 0-1.106-0.254-2.248-0.87-3.336zM997.639 779.803h-971.277c-14.577 0-26.361-11.803-26.361-26.361v-610.883c0-14.559 11.785-26.38 26.361-26.38h971.277c14.577 0 26.361 11.803 26.361 26.361v610.901c0 14.559-11.785 26.361-26.361 26.361zM905.301 307.418c-0.671-1.251-1.668-2.248-2.919-2.955-1.287-0.689-2.575-1.052-3.952-1.052s-2.738 0.363-3.971 1.052c-1.269 0.707-2.266 1.704-2.973 2.955-0.671 1.287-1.052 2.593-1.052 3.971s0.381 2.738 1.088 3.971c0.707 1.287 1.704 2.266 2.973 2.973 1.287 0.671 2.593 1.033 3.934 1.033 1.305 0 2.647-0.363 3.898-1.033 1.269-0.707 2.266-1.686 2.973-2.973 0.707-1.269 1.088-2.593 1.088-3.971s-0.363-2.665-1.088-3.971zM923.087 448.018c0.036-135.905-110.105-246.101-246.010-246.137-63.565-0.018-121.491 24.077-165.167 63.656-43.658-39.506-101.512-63.583-164.968-63.583-135.832 0-246.065 110.232-246.065 246.065 0 135.307 109.38 245.212 244.487 246.065 0.526 0 1.052 0 1.577 0 63.456 0 121.328-24.077 164.986-63.565 43.676 39.542 101.566 63.619 165.058 63.637 135.905 0.036 246.101-110.105 246.137-246.010 0-0.073 0-0.127-0.036-0.127zM796.428 465.731c8.014 0 18.982-0.653 29.353-1.722l5.802 26.343c-10.588 1.233-26.615 2.23-35.934 2.23-45.688-0.054-61.498-17.55-61.335-38.527 0-14.377 9.482-24.276 31.093-31.71 16.535-5.693 19.091-7.379 19.091-12.528 0-7.107-7.27-10.28-23.442-10.28-12.184 0-23.515 1.396-36.623 4.514l-5.602-26.253 1.813-0.272 7.488-1.142c2.429-0.381 5.965-0.689 10.661-0.997 9.718-0.635 17.242-0.979 22.536-0.979 43.078 0 63.003 12.039 63.003 38.001 0 15.61-8.322 24.748-28.791 31.674-17.097 5.747-19.109 7.035-19.109 12.347 0 6.128 6.799 9.301 19.998 9.301zM682.298 490.117l-11.549-51.309c-2.937-16.462-13.126-30.586-30.314-30.586-11.313-0.417-17.949 6.201-17.949 12.818 0 5.765 1.595 11.331 2.701 16.897l11.313 52.179h-39.941l-10.878-51.943c-2.502-11.767-3.155-16.045-3.155-23.533 0-21.811 12.891-38.491 36.641-38.491 21.521 0 33.686 8.34 45.471 20.759h0.435l-3.191-18.185h37.784c1.124 10.080 2.937 19.454 4.95 29.081l18.348 82.312h-40.666zM453.91 344.131c4.261-9.156 9.246-17.876 14.541-26.343h87.297c5.294 8.431 10.080 17.242 14.323 26.343h-116.161zM539.758 473.274c0.562 5.82 3.227 11.368 2.339 17.169h-36.641c-5.294-34.629-14.667-69.584-21.992-104.231l-1.922-7.524h41.736c4.968 22.754 7.977 46.341 17.369 67.408 4.913 8.431 14.758 16.553 25.527 14.994l6.618-1.287 12.746 31.311c-29.48 3.88-37.856-10.624-45.779-17.84zM448.635 473.31c0.562 5.82 3.209 11.386 2.339 17.188h-36.659c-5.276-34.647-14.649-69.602-21.974-104.249l-1.922-7.524 41.718 0.036c4.968 22.735 7.995 46.323 17.387 67.39 4.913 8.412 14.74 16.553 25.527 14.976l6.618-1.287 12.727 31.275c-29.498 3.88-37.856-10.624-45.761-17.804z" />
<glyph unicode="&#xe96f;" d="M832 494.078c-13.255-0.001-23.999-10.745-24-24v0-406.078c-0.033-39.779-32.288-72.014-72.072-72.014-3.335 0-6.618 0.227-9.833 0.665l0.374-0.042c-35.61 5.715-62.488 36.22-62.488 73.003 0 0.592 0.007 1.182 0.021 1.771l-0.002-0.087v92.704c-0.001 13.255-10.745 23.999-24 24h-456v712c0.057 4.395 3.605 7.943 7.995 8h510.083c13.255 0 24 10.745 24 24s-10.745 24-24 24v0h-510.078c-30.912-0.039-55.961-25.088-56-55.996v-712.004h-104c-13.255-0.001-23.999-10.745-24-24v0-92.188c0.080-68.347 55.465-123.732 123.805-123.812h604.195c0.162 0 0.311 0.045 0.472 0.048 66.051 0.276 119.494 53.867 119.528 119.949v406.081c-0.001 13.255-10.745 23.999-24 24v0zM131.812-8c-41.85 0.051-75.762 33.963-75.812 75.808v68.193h560v-68.704c0-0.046 0-0.1 0-0.154 0-28.322 9.374-54.454 25.19-75.463l-0.231 0.321z" />
<glyph unicode="&#xe970;" d="M512 88h-352c-13.255 0-24-10.745-24-24s10.745-24 24-24v0h352c13.255 0 24 10.745 24 24s-10.745 24-24 24v0z" />
<glyph unicode="&#xe971;" d="M400 856c-92.784 0-168-75.216-168-168s75.216-168 168-168c92.784 0 168 75.216 168 168v0c-0.107 92.741-75.259 167.893-167.99 168h-0.010zM400 568c-66.274 0-120 53.726-120 120s53.726 120 120 120c66.274 0 120-53.726 120-120v0c-0.075-66.244-53.756-119.925-119.993-120h-0.007z" />
<glyph unicode="&#xe972;" d="M431.031 736.969l-47.031-47.031-15.031 15.031c-4.343 4.343-10.342 7.029-16.969 7.029-13.253 0-23.998-10.744-23.998-23.998 0-6.627 2.686-12.626 7.029-16.969l32-32c4.342-4.344 10.342-7.031 16.969-7.031s12.627 2.687 16.969 7.031l64 64c4.343 4.343 7.029 10.342 7.029 16.969 0 13.253-10.744 23.998-23.998 23.998-6.627 0-12.626-2.686-16.969-7.029v0z" />
<glyph unicode="&#xe973;" d="M232 352v-96c0.001-13.255 10.745-23.999 24-24h480c13.255 0.001 23.999 10.745 24 24v0 96c-0.001 13.255-10.745 23.999-24 24h-480c-13.255-0.001-23.999-10.745-24-24v0zM280 328h432v-48h-432z" />
<glyph unicode="&#xe974;" d="M272 472c-13.255 0-24-10.745-24-24s10.745-24 24-24v0h256c13.255 0 24 10.745 24 24s-10.745 24-24 24v0z" />
<glyph unicode="&#xe975;" d="M1015.719 928.469c-0.443 12.519-10.411 22.571-22.853 23.146l-0.053 0.002c-5.465 0.292-11.864 0.458-18.301 0.458-69.862 0-135.146-19.597-190.656-53.595l1.597 0.91c-83.606-53.694-144.214-136.983-167.326-234.763l-0.518-2.597c-1.019-4.010-1.604-8.612-1.604-13.352 0-18.363 8.779-34.675 22.369-44.968l0.141-0.102 28.739-21.691c-23.294-35.583-45.198-76.56-63.443-119.468l-1.968-5.209c-1.162-2.721-1.838-5.888-1.838-9.212 0-13.259 10.748-24.007 24.007-24.007 9.911 0 18.42 6.006 22.084 14.577l0.060 0.157c18.482 44.092 38.43 81.603 61.323 117.033l-1.758-2.904 28.482-21.496c9.267-7.138 21.039-11.44 33.816-11.44 10.723 0 20.738 3.030 29.236 8.281l-0.239-0.138c81.96 49.661 145.745 122.144 183.41 208.623l1.138 2.932c21.805 50.709 34.485 109.733 34.485 171.719 0 6.014-0.119 12.001-0.356 17.957l0.027-0.856zM959.719 861.859c-31.102-27.099-59.401-55.147-85.818-84.903l-0.834-0.956h38.933c13.255 0 24-10.745 24-24s-10.745-24-24-24v0h-78.673q-26.028-33.725-48.93-69.849l26.899 5.38c1.404 0.292 3.016 0.458 4.668 0.458 13.253 0 23.997-10.744 23.997-23.997 0-11.576-8.197-21.238-19.103-23.497l-0.155-0.027-80-16c-1.286-0.239-2.767-0.376-4.279-0.376-11.662 0-21.425 8.134-23.924 19.038l-0.032 0.165c-0.859 4.24-2.933 17.557-16.141 96.758-0.208 1.186-0.327 2.552-0.327 3.945 0 13.254 10.745 23.999 23.999 23.999 11.861 0 21.712-8.604 23.652-19.911l0.020-0.142 5.312-31.867c13.541 20.877 27.948 41.167 43.016 60.916v95.007c0 13.255 10.745 24 24 24s24-10.745 24-24v0-36.999c27.806 31.082 56.631 59.545 87.121 86.148l1.161 0.992c4.188 3.649 9.7 5.874 15.732 5.874 13.257 0 24.003-10.747 24.003-24.003 0-7.237-3.203-13.726-8.269-18.127l-0.029-0.025z" />
<glyph unicode="&#xe976;" glyph-name="wing" d="M520 888c-287.408 0-520-232.592-520-520v-360h80c0 88.224 71.776 160 160 160h104c97.772 0 179.372 70.526 196.626 163.374 80.97 15.048 144.952 79.030 160 160 80.97 15.048 144.952 79.030 160 160 92.85 17.254 163.374 98.854 163.374 196.626v40zM824 728h-240v-80h193.146c-16.51-46.562-60.996-80-113.146-80h-240v-80h193.146c-16.51-46.562-60.996-80-113.146-80h-240v-80h193.146c-16.51-46.562-60.996-80-113.146-80h-104c-61.416 0-117.508-23.2-160-61.28v181.28c0 242.618 197.382 440 440 440h417.146c-16.51-46.562-60.996-80-113.146-80z" />
<glyph unicode="&#xe977;" d="M350.722 564.212c-2.204-9.141 0.786-18.753 7.786-25.031 4.287-3.027 8.775-5.762 13.428-8.186v60.331c-10.978-5.15-18.855-15.218-21.213-27.114z" />
<glyph unicode="&#xe978;" d="M421.707 458.957l-1.008 0.339v-87.684c17.601 6.847 30.411 22.305 33.873 40.869 3.539 21.86-11.077 42.529-32.866 46.476z" />
<glyph unicode="&#xe979;" d="M398.222 732.459c-139.14 0-251.937-112.796-251.937-251.937s112.796-251.937 251.937-251.937 251.937 112.796 251.937 251.937c-0.156 139.075-112.859 251.78-251.937 251.937zM502.754 404.949c-7.43-42.293-39.979-75.731-82.056-84.299v-18.924c0-13.464-10.917-24.381-24.381-24.381s-24.381 10.917-24.381 24.381v16.851c-24.157 1.436-47.496 9.279-67.619 22.721-11.514 6.979-15.193 21.969-8.214 33.483s21.969 15.193 33.483 8.214c12.56-8.702 27.14-14.039 42.35-15.508v109.659c-14.848 5.888-28.971 13.464-42.088 22.581-22.404 17.091-32.961 45.56-27.12 73.127 6.268 35.428 33.839 63.26 69.205 69.864v16.597c0 13.464 10.917 24.381 24.381 24.381s24.381-10.917 24.381-24.381v-14.899c19.324-2.974 37.585-10.774 53.096-22.68 10.197-8.793 11.335-24.19 2.54-34.385-8.667-10.051-23.784-11.321-34.007-2.861-6.536 4.643-13.867 8.056-21.628 10.071v-83.812c5.429-1.879 10.86-3.716 16.183-5.457 44.554-11.453 73.084-54.912 65.875-100.344z" />
<glyph unicode="&#xe97a;" d="M967.111 602.423h-170.667v333.198c-0.026 13.477-10.975 24.381-24.452 24.353-6.617-0.014-12.944-2.712-17.532-7.481l-107.063-111.673-107.079 111.675c-9.773 9.592-25.429 9.59-35.198-0.008l-106.984-111.657-107.024 111.665c-9.777 9.592-25.433 9.59-35.206-0.008l-106.978-111.649-106.937 111.649c-9.342 9.714-24.791 10.014-34.505 0.673-4.771-4.59-7.473-10.919-7.487-17.538v-861.44c0.085-76.268 61.891-138.071 138.159-138.155h747.683c76.266 0.087 138.069 61.889 138.159 138.155v471.355c-0.039 31.403-25.486 56.848-56.889 56.887zM48.762 74.181v800.744l82.556-86.197c9.32-9.724 24.757-10.053 34.481-0.733 0.25 0.24 0.494 0.484 0.733 0.733l106.975 111.657 107.024-111.665c9.777-9.592 25.433-9.59 35.206 0.008l106.992 111.657 107.063-111.665c9.777-9.588 25.429-9.588 35.206 0l82.684 86.244v-800.782c-0.008-32.782 11.701-64.488 33.014-89.395h-642.538c-49.349 0.055-89.34 40.046-89.397 89.395zM975.238 74.181c0-49.373-40.023-89.397-89.397-89.397s-89.397 40.023-89.397 89.397v479.482h170.667c4.486-0.006 8.121-3.641 8.127-8.127z" />
<glyph unicode="&#xe97b;" d="M658.286 179.824h-520.127c-13.464 0-24.381-10.917-24.381-24.381s10.917-24.381 24.381-24.381h520.127c13.464 0 24.381 10.917 24.381 24.381s-10.917 24.381-24.381 24.381z" />
<glyph unicode="&#xe97c;" d="M658.286 82.3h-520.127c-13.464 0-24.381-10.917-24.381-24.381s10.917-24.381 24.381-24.381h520.127c13.464 0 24.381 10.917 24.381 24.381s-10.917 24.381-24.381 24.381z" />
<glyph unicode="&#xe97d;" glyph-name="play-button" d="M73.143 960l877.714-512-877.714-512z" />
</font>
</defs>
</svg>
