<?xml version="1.0" encoding="UTF-8"?>
<svg id="Layer_1" data-name="Layer 1" xmlns="http://www.w3.org/2000/svg" viewBox="0 0 2703.7 1193.13">
  <defs>
    <style>
      .cls-1 {
        fill: #fff;
        stroke-width: 0px;
      }
    </style>
  </defs>
  <g>
    <g>
      <polygon class="cls-1" points="1541.11 699.66 1534.02 689.63 1521.17 689.63 1532.06 707.39 1550.15 707.39 1561.05 689.63 1548.19 689.63 1541.11 699.66"/>
      <path class="cls-1" d="m1094.14,714.26l-25.28,71.92h18.85l5.12-16.24h24.63l5.01,16.24h19.29l-25.17-71.92h-22.45Zm2.18,42.93l8.83-29.09,8.83,29.09h-17.65Z"/>
      <path class="cls-1" d="m1213.12,757.19c0,5.16-1.11,9.01-3.32,11.55-2.22,2.54-5.58,3.81-10.08,3.81s-7.75-1.27-9.97-3.81c-2.22-2.54-3.32-6.39-3.32-11.55v-42.93h-18.85v42.61c0,10.17,2.72,17.78,8.17,22.83,5.45,5.05,13.44,7.57,23.97,7.57s18.61-2.52,24.03-7.57c5.41-5.05,8.12-12.66,8.12-22.83v-42.61h-18.74v42.93Z"/>
      <polygon class="cls-1" points="1262.92 728.75 1286.46 728.75 1286.46 786.18 1305.2 786.18 1305.2 728.75 1328.63 728.75 1328.63 714.26 1262.92 714.26 1262.92 728.75"/>
      <path class="cls-1" d="m1409.21,717.58c-5.27-2.94-11.53-4.41-18.8-4.41s-13.55,1.47-18.85,4.41c-5.3,2.94-9.37,7.17-12.2,12.69-2.83,5.52-4.25,12.17-4.25,19.94s1.42,14.42,4.25,19.94c2.83,5.52,6.9,9.75,12.2,12.69,5.3,2.94,11.59,4.41,18.85,4.41s13.53-1.47,18.8-4.41c5.27-2.94,9.32-7.17,12.15-12.69,2.83-5.52,4.25-12.17,4.25-19.94s-1.42-14.42-4.25-19.94c-2.83-5.52-6.88-9.75-12.15-12.69Zm-4.63,44.95c-1.24,3.34-3.03,5.85-5.39,7.52-2.36,1.67-5.29,2.51-8.77,2.51s-6.43-.83-8.83-2.51c-2.4-1.67-4.21-4.18-5.45-7.52-1.24-3.34-1.85-7.45-1.85-12.31s.62-9.06,1.85-12.37c1.23-3.3,3.05-5.79,5.45-7.46,2.4-1.67,5.34-2.51,8.83-2.51s6.41.84,8.77,2.51c2.36,1.67,4.16,4.16,5.39,7.46,1.23,3.31,1.85,7.43,1.85,12.37s-.62,8.97-1.85,12.31Z"/>
      <path class="cls-1" d="m1534.46,728.53c1.67-.58,3.85-.87,6.54-.87,4.58,0,8.66.82,12.26,2.45,3.6,1.63,6.96,4.09,10.08,7.35l9.04-12.09c-3.78-3.99-8.23-7.03-13.35-9.1-5.12-2.07-11.02-3.11-17.71-3.11s-12.02,1.02-16.67,3.05c-4.65,2.03-8.21,4.81-10.68,8.34-2.47,3.52-3.7,7.54-3.7,12.04,0,4,.91,7.32,2.72,9.97,1.81,2.65,4.3,4.76,7.46,6.32,3.16,1.56,6.77,2.82,10.84,3.76l13.29,2.94c3.05.73,5.12,1.62,6.21,2.67,1.09,1.05,1.63,2.34,1.63,3.87,0,1.38-.4,2.58-1.2,3.6-.8,1.02-2.05,1.78-3.76,2.29-1.71.51-3.83.76-6.37.76-3.27,0-6.48-.47-9.64-1.42-3.16-.94-6.07-2.23-8.72-3.87-2.65-1.63-4.89-3.5-6.7-5.61l-9.04,12.53c2.4,2.54,5.34,4.79,8.83,6.76,3.49,1.96,7.41,3.47,11.77,4.52,4.36,1.05,8.94,1.58,13.73,1.58,5.88,0,11.11-.89,15.69-2.67,4.58-1.78,8.17-4.43,10.79-7.95,2.62-3.52,3.92-7.83,3.92-12.91s-1.67-9.55-5.01-12.75c-3.34-3.2-8.61-5.63-15.8-7.3l-12.09-2.72c-3.2-.72-5.5-1.62-6.92-2.67-1.42-1.05-2.13-2.34-2.13-3.87,0-1.31.36-2.47,1.09-3.49.73-1.02,1.92-1.82,3.6-2.4Z"/>
      <polygon class="cls-1" points="1670.56 714.26 1649.74 714.26 1624.03 746.16 1624.03 714.26 1605.29 714.26 1605.29 786.18 1624.03 786.18 1624.03 765.9 1632.76 755.28 1650.61 786.18 1671.86 786.18 1646.16 743.46 1670.56 714.26"/>
      <path class="cls-1" d="m1747.43,717.58c-5.27-2.94-11.53-4.41-18.8-4.41s-13.55,1.47-18.85,4.41c-5.3,2.94-9.37,7.17-12.2,12.69-2.83,5.52-4.25,12.17-4.25,19.94s1.42,14.42,4.25,19.94c2.83,5.52,6.9,9.75,12.2,12.69,5.3,2.94,11.59,4.41,18.85,4.41s13.53-1.47,18.8-4.41c5.27-2.94,9.32-7.17,12.15-12.69,2.83-5.52,4.25-12.17,4.25-19.94s-1.42-14.42-4.25-19.94c-2.83-5.52-6.88-9.75-12.15-12.69Zm-4.63,44.95c-1.24,3.34-3.03,5.85-5.39,7.52-2.36,1.67-5.28,2.51-8.77,2.51s-6.43-.83-8.83-2.51c-2.4-1.67-4.21-4.18-5.45-7.52-1.24-3.34-1.85-7.45-1.85-12.31s.62-9.06,1.85-12.37c1.23-3.3,3.05-5.79,5.45-7.46,2.4-1.67,5.34-2.51,8.83-2.51s6.41.84,8.77,2.51c2.36,1.67,4.16,4.16,5.39,7.46,1.23,3.31,1.85,7.43,1.85,12.37s-.62,8.97-1.85,12.31Z"/>
      <polygon class="cls-1" points="1817.22 714.26 1798.48 714.26 1798.48 786.18 1853.29 786.18 1853.29 771.68 1817.22 771.68 1817.22 714.26"/>
      <path class="cls-1" d="m1903.63,714.26l-25.28,71.92h18.85l5.12-16.24h24.63l5.01,16.24h19.29l-25.17-71.92h-22.45Zm2.18,42.93l8.83-29.09,8.83,29.09h-17.65Z"/>
    </g>
    <g>
      <polygon class="cls-1" points="1249.29 534.71 1226.54 588.3 1223.46 588.3 1199.94 534.71 1125.53 385.12 1068.86 385.12 1068.86 643.43 1110.49 643.43 1110.49 484.97 1108.95 447.58 1112.04 447.58 1127.84 484.97 1199.17 628.01 1249.29 628.01 1320.62 484.97 1336.43 447.58 1339.51 447.58 1337.97 484.97 1337.97 643.43 1379.61 643.43 1379.61 385.12 1322.93 385.12 1249.29 534.71"/>
      <rect class="cls-1" x="1495.27" y="385.12" width="41.64" height="258.32"/>
      <path class="cls-1" d="m1886.59,643.43l-43.18-74.8c-9.25-16.19-18.51-27.76-38.55-33.16v-2.7c48.58-2.7,76.72-28.92,76.72-71.71,0-48.19-36.24-75.95-94.85-75.95h-134.17v258.32h41.64v-100.24h47.42c32.39,0,44.34,8.48,55.9,28.92l41.25,71.33h47.81Zm-100.24-132.24h-92.15v-88.68h92.15c34.7,0,52.05,12.72,52.05,44.34s-17.35,44.34-52.05,44.34Z"/>
      <path class="cls-1" d="m2181.92,576.35l29.69,67.09h47.04l-115.28-258.32h-58.6l-115.28,258.32h46.27l29.69-67.09h136.48Zm-84.82-116.05l15.04-36.63h3.08l15.04,36.63,35.08,78.65h-103.33l35.09-78.65Z"/>
      <polygon class="cls-1" points="2564.38 385.12 2475.71 601.41 2472.62 601.41 2383.18 385.12 2333.83 385.12 2444.09 643.43 2503.08 643.43 2613.35 385.12 2564.38 385.12"/>
    </g>
  </g>
  <g>
    <path class="cls-1" d="m793.11,247.37c-7.39-7.39-19.28-7.07-26.35,0l-74.55,74.55c-50.77-44.34-117.29-71.66-189.91-71.66s-138.82,27.32-189.59,71.66l-74.87-74.55c-7.07-7.07-18.96-7.39-26.03,0-78.4,77.77-121.47,181.56-121.47,291.77,0,57.52,11.57,113.11,34.39,165.49,3.21,7.07,10.28,11.57,17.99,11.57,2.57,0,5.14-.64,7.71-1.61,9.64-4.5,14.14-15.75,9.96-25.7-20.88-47.24-31.49-97.69-31.49-149.74,0-61.05,14.78-120.18,42.42-172.88,22.17-42.41,79.37-51.41,113.43-17.35l.32.64c-42.74,48.84-69.73,112.47-71.34,182.2-3.86,156.49,123.71,291.46,279.88,295.95,163.24,4.82,297.56-126.61,297.56-288.56,0-72.62-27.32-138.82-71.66-189.59l.32-.64c34.06-34.06,91.25-25.07,113.75,17.35,27.31,52.7,42.09,111.83,42.09,172.88,0,52.06-10.6,102.5-31.17,149.74-4.5,9.96,0,21.21,9.96,25.7,2.25.96,5.14,1.61,7.71,1.61,7.39,0,14.46-4.5,17.68-11.57,22.81-52.38,34.38-107.97,34.38-165.49,0-110.22-43.06-214.01-121.15-291.77Zm-290.81,41.77c62.02,0,118.89,22.82,162.59,60.09l-116,116h0l-46.59,46.6-46.6-46.6-115.68-116c43.7-37.28,100.26-60.09,162.28-60.09Zm-221.63,134.78c13.53-25.71,48.45-30.64,68.99-10.1l71.66,71.66c3.86,3.85,5.46,8.03,5.78,12.53.32,5.79-1.61,11.57-5.78,15.75-3.54,3.86-8.36,6.11-14.14,6.11h-142.04c-6.23,0-11.35-5.52-10.62-11.71,3.52-30.02,12.56-58.43,26.14-84.23Zm202.34,352.37c0,6.43-5.78,11.57-11.89,10.92-113.11-14.14-202.44-103.79-216.58-216.9-.96-6.1,4.17-11.89,10.6-11.89h145.62c6.72,0,12.31,4.37,15.02,10.52,8.99,20.37,25.82,36.48,46.55,44.38,6.19,2.36,10.68,7.78,10.68,14.41v148.54Zm50.45,10.92c-6.1.64-11.89-4.5-11.89-10.92v-148.54c0-6.63,4.48-12.05,10.68-14.41,20.74-7.91,37.57-24.01,46.56-44.38,2.71-6.15,8.3-10.52,15.02-10.52h145.61c6.43,0,11.57,5.78,10.93,11.89-14.14,113.11-103.79,202.77-216.9,216.9Zm190.46-363.29c13.51,25.67,22.53,53.92,26.41,83.77.83,6.41-4.43,12.16-10.89,12.16h-141.71c-5.78,0-10.93-2.25-14.46-6.11-3.86-4.17-6.11-9.96-5.79-15.75.32-4.5,1.93-8.68,5.79-12.53l71.66-71.66c20.54-20.54,55.46-15.61,68.99,10.1Z"/>
    <path class="cls-1" d="m747.13,821.05c-67.86,58.99-154.79,91.48-244.77,91.48s-176.9-32.49-244.76-91.48c-8.04-6.96-20.23-6.17-27.27,1.91-7,8.06-6.15,20.28,1.91,27.28,74.9,65.11,170.83,100.96,270.13,100.96s195.24-35.85,270.14-100.96c8.06-7,8.91-19.22,1.91-27.28-7.04-8.08-19.24-8.87-27.28-1.91Z"/>
  </g>
</svg>